<?xml version="1.0"?>
<svg xmlns="http://www.w3.org/2000/svg" xmlns:xlink="http://www.w3.org/1999/xlink" xmlns:svgjs="http://svgjs.com/svgjs" version="1.1" width="512" height="512" x="0" y="0" viewBox="0 0 64 64" style="enable-background:new 0 0 512 512" xml:space="preserve" class=""><g><path d="m21.08 49.28c.14 2.12.11 7.93-3.65 12.1l-3.58-3.23-.01-.01c.25-.22.49-.45.72-.69 2.87-2.85 4.98-5.62 6.52-8.17z" fill="#e6d2c1" data-original="#a3c9c5" class=""/><path d="m7.92 55.49 2.23 2.01s-.6 2.16-4.69 5.2l-.08-1.41s-.59 2.15-4.16 1.63c-.89-3.5 1.19-4.31 1.19-4.31l-1.41.07c2.61-4.38 4.69-5.2 4.69-5.2z" fill="#e6d2c1" data-original="#a3c9c5" class=""/><path d="m1.09 46.64c3.77-4.18 9.56-4.8 11.67-4.88-2.38 1.8-4.93 4.17-7.47 7.32-.21.25-.42.51-.63.78z" fill="#e6d2c1" data-original="#a3c9c5" class=""/><path d="m13.86 57.71.18.18c-.07.11-.14.19-.2.25z" fill="#e6d2c1" data-original="#a3c9c5" class=""/><path d="m1.01 61.541c.018.407.078.86.21 1.379 3.57.52 4.16-1.63 4.16-1.63l.08 1.41c4.09-3.04 5.083-5.652 5.083-5.652l-.603-.544c-1.887 2.706-5.916 3.753-8.93 5.037z" fill="#755941" data-original="#66a69e" class=""/><circle cx="38" cy="26" fill="#af9178" r="25" data-original="#519a93" class=""/><path d="m63 26c0 13.81-11.19 25-25 25-6.56 0-12.54-2.53-17-6.67 3.89 2.5 8.52 3.95 13.48 3.95 13.81 0 25-11.2 25-25 0-7.25-3.08-13.78-8.01-18.34 6.94 4.44 11.53 12.21 11.53 21.06z" fill="#755941" data-original="#1a7366" class=""/><circle cx="53" cy="28" fill="#e6d2c1" r="3" data-original="#a3c9c5" class=""/><circle cx="53" cy="19" fill="#e6d2c1" r="2" data-original="#a3c9c5" class=""/><path d="m50 42c2.02 0 3.85.86 5.11 2.23-3.28 3.08-7.39 5.28-11.96 6.23-.1-.47-.15-.96-.15-1.46 0-3.87 3.13-7 7-7z" fill="#e6d2c1" data-original="#a3c9c5" class=""/><path d="m55.11 44.23c-3.28 3.08-7.39 5.28-11.96 6.23-.1-.47-.15-.96-.15-1.46 0-.84.14-1.63.42-2.37 2.79-1.07 5.35-2.62 7.55-4.56 1.63.22 3.09 1.01 4.14 2.16z" fill="#755941" data-original="#66a69e" class=""/><circle cx="41" cy="9" fill="#e6d2c1" r="4" data-original="#a3c9c5" class=""/><circle cx="37" cy="36.39" fill="#e6d2c1" r="2" data-original="#a3c9c5" class=""/><path d="m23.8 36.42c.81-.17 1.55.49 1.46 1.32-.08.74-.23 1.73-.52 2.92-.67-.36-1.39-.88-2.08-1.5-.7-.63-1.28-1.29-1.71-1.92 1.15-.42 2.12-.67 2.85-.82z" fill="#af9178" data-original="#66ddd0" class=""/><circle cx="22" cy="21" fill="#e6d2c1" r="4" data-original="#a3c9c5" class=""/><path d="m21.08 49.28c-1.54 2.55-3.65 5.32-6.52 8.17l-9.26-8.36-.01-.01c2.54-3.15 5.09-5.52 7.47-7.32 1.39-1.06 2.73-1.91 3.98-2.61 1.56-.87 2.99-1.48 4.21-1.91.43.63 1.01 1.29 1.71 1.92.69.62 1.41 1.14 2.08 1.5-.36 1.47-.93 3.25-1.86 5.24-.49 1.07-1.09 2.2-1.8 3.38z" fill="#af9178" data-original="#3e887e" class=""/><path d="m18.64 43.61c1.23 1.11 1.32 3.01.21 4.24s-3 1.33-4.23.22-1.33-3.01-.22-4.24 3.01-1.33 4.24-.22z" fill="#99dede" data-original="#66ddd0" class=""/><path d="m18.85 47.85c-1.11 1.23-3 1.33-4.23.22-.65-.58-.98-1.38-.99-2.18.1.14.22.27.36.39 1.23 1.11 3.12 1.01 4.23-.22.53-.59.79-1.32.78-2.06.88 1.13.84 2.75-.15 3.85z" fill="#38abab" data-original="#1cbaa3" class=""/><path d="m4.66 49.86c.21-.27.42-.53.63-.78l.01.01 9.26 8.36c-.23.24-.47.47-.72.69-.47.47-.96.92-1.47 1.37l-2.22-2.01-2.23-2.01-2.23-2.01-2.23-2.01c.4-.56.8-1.1 1.2-1.61z" fill="#af9178" data-original="#66ddd0" class=""/><path d="m21.07 51.7c-1.46 2.23-3.36 4.6-5.81 7.04-.07.07-.14.14-.21.2l-1.01-1.05c.18-.29.36-.7.53-.88 2.87-2.85 4.98-5.62 6.52-8.17.04.64.07 1.65-.02 2.86z" fill="#755941" data-original="#66a69e" class=""/><path d="m25.26 37.74c-.08.74-.23 1.73-.52 2.92-.17-.09-.34-.19-.51-.3-.29-.18-.59-.4-.89-.63-.13-.1-.26-.21-.39-.32.28-1.15.42-2.1.5-2.82.01-.04.01-.07.01-.1.12-.02.23-.05.34-.07.81-.17 1.55.49 1.46 1.32z" fill="#755941" data-original="#1cbaa3" class=""/><path d="m24.74 40.66c-.36 1.47-.93 3.25-1.86 5.24-.49 1.07-1.09 2.2-1.8 3.38-1.54 2.55-3.65 5.32-6.52 8.17l-1.56-1.41c2.75-2.76 4.78-5.44 6.27-7.91.71-1.18 1.31-2.31 1.8-3.38.93-1.99 1.5-3.77 1.86-5.24.01-.03.02-.07.02-.1.13.11.26.22.39.32.3.23.6.45.89.63.17.11.34.21.51.3z" fill="#755941" data-original="#1a7366" class=""/><path d="m14.56 57.45c-.23.24-.47.47-.72.69-.47.47-.96.92-1.47 1.37l-1.54-1.39c.42-.37.81-.74 1.2-1.13.25-.22.49-.45.72-.69.09-.09.18-.17.25-.26z" fill="#755941" data-original="#1cbaa3" class=""/><g fill="#142623"><path d="m16.624 49.838c1.094 0 2.185-.445 2.973-1.319 1.478-1.637 1.347-4.171-.29-5.649-.793-.716-1.822-1.08-2.886-1.024-1.066.055-2.049.521-2.764 1.315-.716.793-1.08 1.818-1.025 2.885s.522 2.049 1.315 2.765c.764.688 1.722 1.027 2.677 1.027zm-1.482-5.338c.358-.396.849-.63 1.383-.658.035-.001.069-.002.104-.002.496 0 .968.181 1.338.515.818.739.884 2.006.146 2.825-.74.819-2.007.882-2.825.146-.396-.358-.631-.849-.658-1.382-.028-.534.154-1.047.512-1.444z" fill="#142623" data-original="#142623" class=""/><path d="m64 26c0-14.336-11.663-26-26-26s-26 11.664-26 26c0 4.506 1.177 8.904 3.387 12.798-.951.566-1.942 1.221-2.965 1.98-2.555.129-8.216.916-12.073 5.192-.178.197-.271.457-.257.721.014.265.132.514.329.691l2.903 2.619c-.224.299-.448.579-.672.889-.298.414-.236.985.142 1.326l1.263 1.14c-.956.763-2.355 2.193-3.915 4.813-.188.317-.188.712.003 1.028.057.094.127.176.208.245-.365.839-.53 2.038-.102 3.722.099.391.424.684.823.743.442.065.849.095 1.222.095 1.077 0 1.878-.245 2.47-.579.076.073.165.135.265.182.334.158.727.118 1.022-.103 2.447-1.819 3.726-3.359 4.387-4.387l1.264 1.14c.19.171.43.257.67.257.237 0 .475-.084.664-.252.286-.254.541-.506.815-.759l2.903 2.619c.191.172.431.257.67.257.272 0 .545-.111.742-.33 3.859-4.277 4.061-9.987 3.926-12.541.431-.727.815-1.433 1.162-2.121 4.348 3.01 9.414 4.615 14.744 4.615 14.337 0 26-11.664 26-26zm-54.515 17.19c-1.619 1.46-3.276 3.184-4.932 5.225l-2.017-1.819c2.14-1.984 4.807-2.941 6.949-3.406zm-3.238 17.598c-.152-.252-.416-.43-.728-.474-.468-.062-.935.227-1.09.68-.043.122-.427 1.1-2.378 1.002-.284-1.919.635-2.412.728-2.457.457-.179.717-.663.613-1.142-.069-.32-.285-.575-.567-.702 1.203-1.716 2.19-2.576 2.745-2.975l3.357 3.029c-.344.6-1.1 1.669-2.68 3.039zm6.127-2.623-7.57-6.829c.205-.276.411-.524.617-.79l1.909 1.722c.191.172.431.257.67.257.272 0 .545-.111.742-.33.37-.41.338-1.042-.072-1.413l-1.993-1.798c5.212-6.192 10.35-9.149 13.923-10.546.401.497.868.994 1.386 1.461s1.059.881 1.596 1.23c-1.022 3.697-3.436 9.111-9.061 14.931l-3.107-2.803c-.409-.369-1.042-.338-1.412.073-.37.41-.338 1.042.072 1.413l3.023 2.727c-.244.232-.47.462-.723.695zm11.693-19.148c-.249-.189-.499-.382-.742-.602-.244-.22-.461-.449-.675-.677.516-.148.974-.259 1.356-.339.096-.021.155.017.191.049.037.033.078.092.068.185-.04.389-.103.855-.198 1.384zm-6.747 20.917-2.016-1.818c1.861-1.857 3.405-3.682 4.691-5.442-.241 2.177-.919 4.928-2.675 7.26zm6.802-14.384c1.467-3.394 1.97-6.128 2.134-7.711.073-.714-.188-1.398-.719-1.876-.53-.479-1.238-.667-1.939-.521-1.395.291-3.685.955-6.464 2.386-2.045-3.598-3.134-7.663-3.134-11.828 0-13.233 10.767-24 24-24s24 10.767 24 24c0 6.555-2.644 12.502-6.919 16.838-1.414-1.174-3.213-1.838-5.081-1.838-4.411 0-8 3.589-8 8 0 .221.016.438.033.654-1.312.223-2.658.346-4.033.346-5.031 0-9.807-1.547-13.878-4.45zm19.878 3.45c0-3.309 2.691-6 6-6 1.313 0 2.577.438 3.602 1.214-2.735 2.346-5.999 4.093-9.59 5.023-.003-.079-.012-.157-.012-.237z" fill="#142623" data-original="#142623" class=""/><path d="m46 9c0-2.757-2.243-5-5-5s-5 2.243-5 5 2.243 5 5 5 5-2.243 5-5zm-5 3c-1.654 0-3-1.346-3-3s1.346-3 3-3 3 1.346 3 3-1.346 3-3 3z" fill="#142623" data-original="#142623" class=""/><path d="m22 16c-.553 0-1 .448-1 1s.447 1 1 1c1.654 0 3 1.346 3 3s-1.346 3-3 3-3-1.346-3-3c0-.731.267-1.436.75-1.984.365-.414.326-1.046-.089-1.412-.412-.364-1.044-.326-1.411.088-.806.914-1.25 2.089-1.25 3.308 0 2.757 2.243 5 5 5s5-2.243 5-5-2.243-5-5-5z" fill="#142623" data-original="#142623" class=""/><path d="m23.816 26.246c-2.494 1.175-5.479.101-6.653-2.395-.236-.5-.832-.715-1.331-.479-.5.235-.714.831-.479 1.331.796 1.692 2.203 2.972 3.963 3.605.774.279 1.576.417 2.375.417 1.017 0 2.029-.224 2.977-.67.5-.235.714-.831.479-1.331-.235-.499-.832-.715-1.331-.478z" fill="#142623" data-original="#142623" class=""/><path d="m53 32c2.206 0 4-1.794 4-4s-1.794-4-4-4-4 1.794-4 4 1.794 4 4 4zm0-6c1.103 0 2 .897 2 2s-.897 2-2 2-2-.897-2-2 .897-2 2-2z" fill="#142623" data-original="#142623" class=""/><path d="m55.65 32.427c-.685.417-1.489.542-2.27.352-.533-.132-1.077.198-1.208.735s.198 1.077.735 1.208c.396.096.795.144 1.191.144.905 0 1.797-.248 2.59-.73 1.142-.695 1.943-1.792 2.259-3.089.131-.537-.199-1.078-.735-1.208-.534-.133-1.077.199-1.208.735-.189.778-.669 1.436-1.354 1.853z" fill="#142623" data-original="#142623" class=""/><path d="m53 22c1.654 0 3-1.346 3-3s-1.346-3-3-3-3 1.346-3 3 1.346 3 3 3zm0-4c.552 0 1 .449 1 1s-.448 1-1 1-1-.449-1-1 .448-1 1-1z" fill="#142623" data-original="#142623" class=""/><path d="m37 33.394c-1.654 0-3 1.346-3 3s1.346 3 3 3 3-1.346 3-3-1.346-3-3-3zm0 4c-.552 0-1-.449-1-1s.448-1 1-1 1 .449 1 1-.448 1-1 1z" fill="#142623" data-original="#142623" class=""/></g></g></svg>
