<svg xmlns="http://www.w3.org/2000/svg" xmlns:xlink="http://www.w3.org/1999/xlink" version="1.1" id="Capa_1" x="0px" y="0px" viewBox="0 0 63.574 63.574" style="enable-background:new 0 0 63.574 63.574;" xml:space="preserve" width="50" height="50">
<g>
	<g>
		<path style="fill:#010002;" d="M49.595,40.64c-1.212-1.511-3.055-1.683-4.564-0.474c-1.783,1.428-4.392,3.263-6.542,4.458    c-0.705-2.352-1.01-5.494-1.578-8.033l0.048-14.521c0,0,7.883-1.041,10.158-1.386c2.424-0.226,2.795-2.358,2.279-3.855    c-0.125-0.364-3.292-9.43-3.844-11.182c-0.542-1.719-2.002-2.74-3.878-2.213c-1.738,0.488-2.261,2.165-1.731,3.886    c0.739,2.407,2.707,8.224,2.707,8.224l-6.906,0.932l-11.166-2.401c-2.843-3.018-4.673-6.383-5.337-11.251    c-0.244-1.787-1.372-3.038-3.412-2.794c-1.789,0.214-2.834,1.889-2.589,3.675c1.001,7.347,4.309,13.562,9.366,17.695v14.375    c-3.471,8.875-3.512,18.034,1.605,26.164c0.666,1.056,1.802,1.635,2.963,1.635c0.638,0,1.282-0.177,1.861-0.538    c1.633-1.031,2.125-3.188,1.096-4.824c-2.835-4.502-4.149-9.966-2.731-16.325c0.228-1.023,1.154-1.741,2.202-1.703h0.003    c0.987,0.035,1.824,0.729,2.043,1.691c0.623,2.721,0.931,5.372,1.402,7.027c0.923,3.236,4.15,3.809,6.204,2.729    c4.176-2.195,6.784-3.77,9.793-6.076C50.582,44.38,50.802,42.145,49.595,40.64z"/>
		<circle style="fill:#010002;" cx="31.162" cy="8.315" r="5.363"/>
	</g>
</g>
<g>
</g>
<g>
</g>
<g>
</g>
<g>
</g>
<g>
</g>
<g>
</g>
<g>
</g>
<g>
</g>
<g>
</g>
<g>
</g>
<g>
</g>
<g>
</g>
<g>
</g>
<g>
</g>
<g>
</g>
</svg>