<svg xmlns="http://www.w3.org/2000/svg" version="1.1" xmlns:xlink="http://www.w3.org/1999/xlink" width="512" height="512" x="0" y="0" viewBox="0 0 64 64" style="enable-background:new 0 0 512 512" xml:space="preserve" class=""><g><path fill="#af9178" d="M14.7 38.5h-2.6l-.2-1.7c-1.2-.2-2.2-.7-3.1-1.3l-1.4 1.1-1.8-1.8 1.1-1.4c-.7-.9-1.1-2-1.3-3.1l-1.7-.2v-2.5l1.6-.4c.2-1.2.7-2.3 1.3-3.2l-1.1-1.4L7.1 21l1.4 1c1-.7 2.1-1.2 3.3-1.5l.2-1.7h2.6l.2 1.7c1.3.2 2.3.7 3.3 1.5l1.4-1 1.6 1.6-1 1.4c.7 1 1.1 2 1.3 3.2l1.7.2v2.5l-1.7.2c-.2 1.2-.7 2.2-1.3 3.1l1.1 1.4-1.8 1.8-1.4-1.1c-1 .7-2 1.1-3.1 1.3z" opacity="1" data-original="#34cba0" class=""></path><circle cx="13.4" cy="28.7" r="2.6" fill="#cecdcc" opacity="1" data-original="#ffffff" class=""></circle><path fill="#000000" d="M14.7 39.2h-2.6c-.4 0-.7-.3-.7-.7l-.1-1.2c-.8-.2-1.6-.5-2.4-1L8 37c-.3.2-.7.2-1-.1l-1.8-1.8c-.3-.3-.3-.7-.1-1l.7-.9c-.5-.8-.8-1.7-1-2.4l-1.2-.1c-.4 0-.7-.4-.7-.7v-2.5c0-.3.2-.7.6-.7l1.2-.3c.2-.8.5-1.6 1-2.5l-.8-1c-.2-.3-.2-.7.1-1l1.6-1.6c.3-.3.7-.3 1-.1l1 .7c.8-.5 1.6-.9 2.6-1.1l.1-1.2c0-.4.4-.7.7-.7h2.6c.4 0 .7.3.7.7l.1 1.2c.9.2 1.8.6 2.6 1.2l.9-.7c.3-.2.7-.2 1 .1l1.6 1.6c.3.3.3.7.1 1l-.6.9c.4.7.8 1.6 1 2.5l1.2.1c.4 0 .7.4.7.7v2.5c0 .4-.3.7-.7.7l-1.2.2c-.2.8-.5 1.6-1 2.4l.7.9c.2.3.2.7-.1 1l-1.8 1.8c-.3.3-.7.3-1 .1l-.9-.7c-.7.4-1.5.7-2.3 1l-.1 1.4c0 .3-.4.6-.8.6zm-1.9-1.5H14l.1-1.2c0-.3.3-.6.6-.7 1.1-.2 2-.6 2.8-1.1.3-.2.6-.2.9 0l.8.7.9-.9-.7-.8c-.2-.3-.2-.6 0-.9.4-.6.9-1.6 1.1-2.8.1-.3.3-.6.7-.6l1.1-.1V28l-1.1-.1c-.3 0-.6-.3-.7-.6-.2-1.1-.6-2.1-1.1-2.9-.2-.3-.2-.6 0-.9l.7-.8-.7-.7-.8.6c-.3.2-.6.2-.9 0-.9-.7-1.8-1.1-2.9-1.3-.3-.1-.6-.3-.6-.7l-.2-1.1h-1.3l-.1 1.1c0 .3-.3.6-.6.6-1.2.3-2.2.8-3 1.3-.3.2-.6.2-.9 0l-.8-.6-.7.7.7.8c.2.2.2.6.1.8-.6 1-1 2-1.2 2.9 0 .3-.3.5-.6.6l-1.1.3v1.3l1.1.1c.3 0 .6.3.7.6.1.8.5 1.9 1.1 2.8.2.3.2.7 0 .9l-.7.8.9.9.8-.7c.3-.2.6-.2.9 0 .6.4 1.6.9 2.8 1.1.3.1.6.3.6.7z" opacity="1" data-original="#151f81" class=""></path><path fill="#000000" d="M13.4 32.1c-1.9 0-3.4-1.5-3.4-3.4s1.5-3.4 3.4-3.4 3.4 1.5 3.4 3.4-1.6 3.4-3.4 3.4zm0-5.3c-1 0-1.9.8-1.9 1.9s.8 1.9 1.9 1.9 1.9-.8 1.9-1.9-.9-1.9-1.9-1.9z" opacity="1" data-original="#151f81" class=""></path><path fill="#38abab" d="M9.4 15.3H7.6l-.2-1.2c-.8-.1-1.6-.5-2.1-.9l-1 .8L3 12.8l.8-1c-.4-.7-.8-1.4-.9-2.3l-1.2-.1V7.7l1.2-.2c.1-.8.5-1.6.9-2.2l-.7-1 1.2-1.2 1 .7c.6-.5 1.4-.8 2.2-1l.2-1.2h1.8l.1 1.2c.9.2 1.6.5 2.3 1l1-.7 1.2 1.2-.8 1c.5.7.8 1.4.9 2.1l1.2.2v1.7l-1.2.2c-.1.8-.5 1.6-.9 2.1l.8 1-1.3 1.4-1-.8c-.7.5-1.4.8-2.1.9z" opacity="1" data-original="#2aabf5" class=""></path><circle cx="8.5" cy="8.5" r="1.7" fill="#cecdcc" opacity="1" data-original="#ffffff" class=""></circle><path fill="#000000" d="M9.4 16.1H7.6c-.4 0-.7-.3-.7-.6l-.1-.7c-.5-.1-1-.4-1.4-.6l-.6.4c-.3.2-.7.2-1-.1l-1.3-1.3c-.3-.3-.3-.7-.1-1l.5-.6c-.2-.5-.5-1-.6-1.5h-.6c-.4 0-.7-.3-.7-.7V7.7c0-.4.3-.7.6-.8l.7-.1c.1-.5.4-1 .6-1.5l-.4-.5c-.2-.3-.2-.7.1-1l1.2-1.2c.3-.3.7-.3 1-.1l.4.5c.4-.3 1-.5 1.6-.7l.1-.7c.1-.3.4-.6.8-.6h1.8c.4 0 .7.3.7.7l.1.6c.6.2 1.1.4 1.6.7l.6-.4c.3-.2.7-.2 1 .1l1.2 1.2c.3.3.3.7.1 1l-.4.5c.3.5.5.9.6 1.4l.6.1c.4.1.6.4.6.7v1.7c0 .4-.3.7-.6.7l-.7.1c-.1.5-.4 1-.6 1.4l.4.6c.2.3.2.7-.1 1l-1.3 1.3c-.3.3-.7.3-1 .1l-.5-.4c-.5.3-1 .5-1.5.6l-.2.8c0 .3-.3.6-.7.6zm-1.2-1.5h.6l.2-.7c.1-.3.3-.5.6-.6.6-.1 1.2-.3 1.8-.7.3-.2.6-.2.9 0l.4.4.3-.3-.4-.4c-.2-.3-.2-.6 0-.9.2-.4.7-1.1.8-1.8 0-.3.3-.6.6-.6l.5-.1v-.6l-.5-.1c-.3-.1-.6-.3-.6-.6-.1-.6-.3-1.2-.7-1.8-.2-.3-.2-.6 0-.9l.4-.4-.2-.2-.5.3c-.3.2-.6.2-.9 0-.5-.4-1.2-.7-2.1-.8-.3-.2-.5-.5-.5-.8v-.5h-.6l-.1.5c0 .3-.3.6-.6.6-.8.2-1.5.5-1.9.9-.3.2-.6.2-.9 0l-.4-.3-.3.2.3.5c.2.3.2.6 0 .8-.2.4-.7 1.1-.7 1.9 0 .3-.3.6-.6.6l-.6.1v.4H3c.4 0 .6.3.7.7.1.6.3 1.2.7 1.8l.1.3c.1.3.1.6-.1.8l-.4.4.3.3.4-.4c.3-.2.6-.2.9 0 .4.2 1.1.7 1.8.8.3 0 .6.3.6.6z" opacity="1" data-original="#151f81" class=""></path><path fill="#000000" d="M8.5 11C7.2 11 6 9.9 6 8.5S7.2 6 8.5 6 11 7.2 11 8.5 9.9 11 8.5 11zm0-3.5c-.5 0-1 .4-1 1s.4 1 1 1 1-.4 1-1-.4-1-1-1z" opacity="1" data-original="#151f81" class=""></path><path fill="#cecdcc" d="M54.3 62.4H9.7c-4.5 0-8-3.6-8-8 0-4.5 3.6-8 8-8h44.6c4.5 0 8 3.6 8 8 .1 4.3-3.6 8-8 8z" opacity="1" data-original="#ffffff" class=""></path><circle cx="9.5" cy="54.3" r="3.5" fill="#e6d2c1" opacity="1" data-original="#f3877e" class=""></circle><circle cx="20.8" cy="54.3" r="3.5" fill="#af9178" opacity="1" data-original="#34cba0" class=""></circle><circle cx="32" cy="54.3" r="3.5" fill="#38abab" opacity="1" data-original="#2aabf5" class=""></circle><circle cx="43.2" cy="54.3" r="3.5" fill="#af9178" opacity="1" data-original="#ffc408" class=""></circle><circle cx="54.5" cy="54.3" r="3.5" fill="#e6d2c1" opacity="1" data-original="#d4d6e8" class=""></circle><path fill="#646261" d="M10.2 42.1H15v4.2h-4.8zM23.1 42.1h4.8v4.2h-4.8zM36.1 42.1h4.8v4.2h-4.8zM49 42.1h4.8v4.2H49z" opacity="1" data-original="#d7e8ff" class=""></path><path fill="#000000" d="M54.3 63.1H9.7c-4.9 0-8.8-3.9-8.8-8.8s3.9-8.8 8.8-8.8h44.6c4.9 0 8.8 3.9 8.8 8.8 0 4.8-4 8.8-8.8 8.8zM9.7 47c-4 0-7.3 3.3-7.3 7.3s3.3 7.3 7.3 7.3h44.6c4 0 7.3-3.3 7.3-7.3S58.3 47 54.3 47z" opacity="1" data-original="#151f81" class=""></path><path fill="#000000" d="M9.5 58.5c-2.3 0-4.2-1.9-4.2-4.2s1.9-4.2 4.2-4.2 4.2 1.9 4.2 4.2-1.9 4.2-4.2 4.2zm0-6.9c-1.5 0-2.7 1.2-2.7 2.7S8 57 9.5 57s2.7-1.2 2.7-2.7-1.2-2.7-2.7-2.7zM20.8 58.5c-2.3 0-4.2-1.9-4.2-4.2s1.9-4.2 4.2-4.2S25 52 25 54.3s-1.9 4.2-4.2 4.2zm0-6.9c-1.5 0-2.7 1.2-2.7 2.7s1.2 2.7 2.7 2.7 2.7-1.2 2.7-2.7-1.2-2.7-2.7-2.7zM32 58.5c-2.3 0-4.2-1.9-4.2-4.2s1.9-4.2 4.2-4.2 4.2 1.9 4.2 4.2-1.9 4.2-4.2 4.2zm0-6.9c-1.5 0-2.7 1.2-2.7 2.7S30.5 57 32 57s2.7-1.2 2.7-2.7-1.2-2.7-2.7-2.7zM43.2 58.5c-2.3 0-4.2-1.9-4.2-4.2s1.9-4.2 4.2-4.2 4.2 1.9 4.2 4.2c.1 2.3-1.8 4.2-4.2 4.2zm0-6.9c-1.5 0-2.7 1.2-2.7 2.7s1.2 2.7 2.7 2.7 2.7-1.2 2.7-2.7c.1-1.5-1.1-2.7-2.7-2.7zM54.5 58.5c-2.3 0-4.2-1.9-4.2-4.2s1.9-4.2 4.2-4.2 4.2 1.9 4.2 4.2-1.9 4.2-4.2 4.2zm0-6.9c-1.5 0-2.7 1.2-2.7 2.7S53 57 54.5 57s2.7-1.2 2.7-2.7-1.2-2.7-2.7-2.7zM62.4 42.8H1.7c-.4 0-.8-.3-.8-.8s.3-.8.8-.8h60.6c.4 0 .8.3.8.8s-.3.8-.7.8z" opacity="1" data-original="#151f81" class=""></path><path fill="#000000" d="M15 47h-4.8c-.4 0-.8-.3-.8-.8V42c0-.4.3-.8.8-.8H15c.4 0 .8.3.8.8v4.2c0 .5-.4.8-.8.8zm-4.1-1.5h3.3v-2.7h-3.3zM27.9 47h-4.8c-.4 0-.8-.3-.8-.8V42c0-.4.3-.8.8-.8h4.8c.4 0 .8.3.8.8v4.2c0 .5-.4.8-.8.8zm-4.1-1.5h3.3v-2.7h-3.3zM40.9 47h-4.8c-.4 0-.8-.3-.8-.8V42c0-.4.3-.8.8-.8h4.8c.4 0 .8.3.8.8v4.2c0 .5-.4.8-.8.8zm-4.1-1.5h3.3v-2.7h-3.3zM53.8 47H49c-.4 0-.8-.3-.8-.8V42c0-.4.3-.8.8-.8h4.8c.4 0 .8.3.8.8v4.2c0 .5-.4.8-.8.8zm-4.1-1.5H53v-2.7h-3.3z" opacity="1" data-original="#151f81" class=""></path><path fill="#e6d2c1" d="M46.4 38.5h-4.9l-.5-3.3c-2.1-.4-4.2-1.3-5.9-2.4l-2.6 2-3.4-3.4 1.9-2.6c-1.2-1.7-2-3.8-2.4-5.9l-3.3-.4v-4.8l3.3-.4c.4-2.1 1.3-4.2 2.4-5.9l-1.9-2.6 3-3.1 2.6 1.9c1.8-1.4 4-2.2 6.2-2.7l.4-3.3h4.9l.4 3.3c2.4.4 4.4 1.4 6.2 2.8l2.6-1.9 3 3.1-1.9 2.6c1.2 1.7 2 3.8 2.4 5.9l3.2.4v4.8l-3.1.3c-.4 2.1-1.3 4.2-2.4 5.9l2 2.6-3.3 3.4-2.6-2c-1.7 1.3-3.8 2-5.9 2.4z" opacity="1" data-original="#f3877e" class=""></path><path fill="#000000" d="M46.4 39.2h-4.9c-.4 0-.7-.3-.7-.7l-.3-2.8c-1.8-.4-3.6-1.1-5.2-2.1l-2.2 1.7c-.3.2-.7.2-1-.1l-3.4-3.4c-.3-.3-.3-.7-.1-1l1.6-2.2c-1-1.6-1.7-3.4-2.1-5.2l-2.8-.3c-.4 0-.7-.4-.7-.7v-4.8c0-.4.3-.7.7-.7l2.8-.3c.4-1.8 1.1-3.6 2.1-5.2l-1.6-2.2c-.2-.3-.2-.7.1-1l3-3.1c.3-.3.7-.3 1-.1l2.2 1.6c1.6-1.1 3.5-1.9 5.5-2.4l.3-2.8c0-.4.4-.7.7-.7h4.9c.4 0 .7.3.7.7l.3 2.7c1.9.4 3.7 1.2 5.5 2.4L55 5.1c.3-.2.7-.2 1 .1l3 3.1c.3.3.3.7.1 1l-1.6 2.2c1 1.6 1.7 3.4 2.1 5.2l2.7.3c.4 0 .7.4.7.7v4.8c0 .4-.3.7-.7.7l-2.7.3c-.4 1.8-1.1 3.6-2.1 5.2l1.7 2.2c.2.3.2.7-.1 1l-3.3 3.4c-.3.3-.7.3-1 .1l-2.2-1.7c-1.5 1-3.3 1.7-5.2 2.1l-.3 2.8c0 .4-.4.6-.7.6zm-4.3-1.5h3.6l.3-2.6c0-.3.3-.6.6-.7 2.2-.4 4-1.2 5.6-2.3.3-.2.6-.2.9 0l2.1 1.6 2.4-2.4-1.6-2.1c-.2-.3-.2-.6 0-.9 1.2-1.7 2-3.7 2.3-5.6.1-.3.3-.6.6-.6l2.5-.3v-3.4l-2.5-.3c-.3 0-.6-.3-.6-.6-.4-2-1.2-3.9-2.3-5.6-.2-.3-.2-.6 0-.9l1.6-2.1-2.1-2.2-2.1 1.5c-.3.2-.6.2-.9 0-1.9-1.4-3.8-2.2-5.9-2.6-.3-.1-.6-.3-.6-.7l-.3-2.6H42L41.7 5c0 .3-.3.6-.6.6-2.3.5-4.3 1.4-5.9 2.6-.3.2-.6.2-.9 0l-2.1-1.5-2.1 2.2 1.6 2.1c.2.3.2.6 0 .9-1.2 1.7-2 3.7-2.3 5.6-.1.3-.3.6-.6.6l-2.6.3v3.4l2.6.3c.3 0 .6.3.7.6.4 2 1.2 3.9 2.3 5.6.2.3.2.6 0 .9l-1.6 2.1 2.5 2.5 2.1-1.6c.3-.2.6-.2.9 0 1.7 1.2 3.7 2 5.6 2.3.3.1.6.3.6.7z" opacity="1" data-original="#151f81" class=""></path><path fill="#cecdcc" d="M48.8 27.7H39c-1.6 0-2.8-1.3-2.8-2.8v-9.7c0-1.6 1.3-2.8 2.8-2.8h9.8c1.6 0 2.8 1.3 2.8 2.8V25c0 1.6-1.3 2.7-2.8 2.7z" opacity="1" data-original="#ffffff" class=""></path><path fill="#646261" d="M39.9 16.1h8v8h-8z" opacity="1" data-original="#d7e8ff" class=""></path><path fill="#af9178" d="m49 16.9-1.7-1.6-1.7 1.6v-4.5H49z" opacity="1" data-original="#34cba0" class=""></path><path fill="#000000" d="M48.8 28.5H39c-2 0-3.6-1.6-3.6-3.6v-9.7c0-2 1.6-3.6 3.6-3.6h9.8c2 0 3.6 1.6 3.6 3.6V25c-.1 2-1.6 3.5-3.6 3.5zM39 13.2c-1.1 0-2.1.9-2.1 2.1V25c0 1.1.9 2.1 2.1 2.1h9.8c1.2 0 2.1-.9 2.1-2v-9.8c0-1.1-.9-2.1-2.1-2.1z" opacity="1" data-original="#151f81" class=""></path></g></svg>