<svg xmlns="http://www.w3.org/2000/svg" xmlns:xlink="http://www.w3.org/1999/xlink" xmlns:svgjs="http://svgjs.com/svgjs" version="1.1" width="512" height="512" x="0" y="0" viewBox="0 0 512 512" style="enable-background:new 0 0 512 512" xml:space="preserve" class=""><g><path d="M69.008 495.304c0 9.221-7.475 16.696-16.696 16.696-9.221 0-16.696-7.475-16.696-16.696V16.696C35.617 7.475 43.092 0 52.312 0c9.221 0 16.696 7.475 16.696 16.696v478.608z" style="" fill="#002c2c" data-original="#373c41" class=""/><path d="M85.704 512H18.921a5.566 5.566 0 0 1-5.566-5.566v-15.582a5.566 5.566 0 0 1 5.566-5.566h66.783a5.566 5.566 0 0 1 5.566 5.566v15.582A5.566 5.566 0 0 1 85.704 512zM174.394 255.999c0 6.305-5.112 11.417-11.417 11.417H22.817c-6.305 0-11.417-5.112-11.417-11.417s5.112-11.417 11.417-11.417h140.159c6.306 0 11.418 5.112 11.418 11.417z" style="" fill="#002c2c" data-original="#50555a" class=""/><path d="M459.687 512c-9.221 0-16.696-7.475-16.696-16.696V16.696C442.992 7.475 450.466 0 459.687 0c9.221 0 16.696 7.475 16.696 16.696v478.609c0 9.22-7.476 16.695-16.696 16.695z" style="" fill="#272a2e" data-original="#272a2e" class=""/><path d="M493.079 512h-66.783a5.566 5.566 0 0 1-5.566-5.566v-15.582a5.566 5.566 0 0 1 5.566-5.566h66.783a5.566 5.566 0 0 1 5.566 5.566v15.582a5.567 5.567 0 0 1-5.566 5.566zM500.6 255.999c0 6.305-5.112 11.417-11.417 11.417H357.346c-6.305 0-11.417-5.112-11.417-11.417s5.112-11.417 11.417-11.417h131.836c6.306 0 11.418 5.112 11.418 11.417zM145.736 273.147c-5.383 0-9.747-4.364-9.747-9.747v-78.847c0-14.905 12.083-26.986 26.987-26.986 14.905 0 26.987 12.083 26.987 26.986V263.4c0 5.383-4.364 9.747-9.747 9.747h-34.48z" style="" fill="#002c2c" data-original="#373c41" class=""/><path d="M332.025 273.147c-5.383 0-9.747-4.364-9.747-9.747v-80.999c0-13.716 12.083-24.834 26.987-24.834s26.987 11.118 26.987 24.834V263.4c0 5.383-4.364 9.747-9.747 9.747h-34.48z" style="" fill="#272a2e" data-original="#272a2e" class=""/><path d="M145.828 231.959h10.93v41.191h-10.93zM169.195 231.959h10.93v41.191h-10.93zM332.115 231.959h10.93v41.191h-10.93zM355.493 231.959h10.93v41.191h-10.93z" style="" fill="#002c2c" data-original="#50555a" class=""/><path d="M137.499 128.685 113.46 103.34a8.615 8.615 0 0 1 12.501-11.856L150 116.829a8.615 8.615 0 0 1-12.501 11.856z" style="" fill="#755941" data-original="#d72846" class=""/><path d="M95.31 108.469h24.175c6.762 0 12.243-5.481 12.243-12.243V86.91c0-6.762-5.481-12.243-12.243-12.243H95.31c-6.762 0-12.243 5.481-12.243 12.243v9.316c0 6.761 5.481 12.243 12.243 12.243z" style="" fill="#e6d2c1" data-original="#f75c66" class=""/><path d="M368.249 131.372a8.614 8.614 0 0 1-6.25-14.542l24.038-25.345a8.614 8.614 0 0 1 12.178-.322 8.614 8.614 0 0 1 .323 12.178L374.5 128.686a8.589 8.589 0 0 1-6.251 2.686z" style="" fill="#755941" data-original="#d72846" class=""/><path d="M416.689 108.469h-24.175c-6.762 0-12.243-5.481-12.243-12.243V86.91c0-6.762 5.481-12.243 12.243-12.243h24.175c6.762 0 12.243 5.481 12.243 12.243v9.316c.001 6.761-5.48 12.243-12.243 12.243z" style="" fill="#af9178" data-original="#e64b55" class=""/><path d="M366.747 118.091H145.564l16.696-98.376h187.791z" style="" fill="#99dede" data-original="#a0ebff" class=""/><path d="M270.93 55.041h-29.86a3.992 3.992 0 0 1-3.992-3.992v-7.778a3.992 3.992 0 0 1 3.992-3.992h29.86a3.992 3.992 0 0 1 3.992 3.992v7.778a3.992 3.992 0 0 1-3.992 3.992z" style="" fill="#002c2c" data-original="#373c41" class=""/><path d="M380.081 126.063a11.125 11.125 0 0 1-10.939 13.167H143.099c-6.955 0-12.215-6.324-10.939-13.167l20.073-107.612a11.127 11.127 0 0 1 10.939-9.086h185.896a11.13 11.13 0 0 1 10.939 9.086l20.074 107.612zm-223.587-9.086h199.254L339.826 31.62h-167.41l-15.922 85.357z" style="" fill="#755941" data-original="#d72846" class=""/><path d="M302.683 73.698c-19.296 0-34.996 15.7-34.996 34.997 0 19.296 15.7 34.996 34.996 34.996 19.297 0 34.997-15.7 34.997-34.996-.001-19.298-15.701-34.997-34.997-34.997zm0 58.862c-13.159 0-23.866-10.706-23.866-23.866 0-7.913 3.876-14.927 9.826-19.264 3.506-2.555 8.475-.067 8.475 4.315-.246 4.282.731 6.96-1.436 10.028a8.539 8.539 0 0 0 1.435 11.419v5.81h11.13v-5.809a8.541 8.541 0 0 0 2.996-6.499 8.497 8.497 0 0 0-1.561-4.922c-2.167-3.07-1.19-5.788-1.436-10.028 0-4.36 4.963-6.875 8.475-4.315 5.951 4.337 9.826 11.351 9.826 19.264.002 13.161-10.705 23.867-23.864 23.867z" style="" fill="#646261" data-original="#696e73" class=""/><path d="M302.683 143.691c-19.297 0-34.997-15.7-34.997-34.997s15.7-34.996 34.997-34.996 34.997 15.7 34.997 34.996-15.701 34.997-34.997 34.997zm0-58.863c-13.159 0-23.866 10.706-23.866 23.866s10.706 23.867 23.866 23.867 23.866-10.706 23.866-23.867-10.707-23.866-23.866-23.866z" style="" fill="#002c2c" data-original="#373c41" class=""/><g style="opacity:0.22;"><path d="M189.963 249.516v-64.962c0-14.905-12.083-26.987-26.987-26.987-14.905 0-26.987 12.083-26.987 26.987v54.945l53.974 10.017zM376.253 249.516v-64.962c0-14.905-12.083-26.987-26.987-26.987s-26.987 12.083-26.987 26.987v54.945l53.974 10.017z" fill="#000000" data-original="#000000" class=""/></g><path d="M399.593 210.32c0 11.948-9.687 21.635-21.635 21.635H134.285c-11.948 0-21.635-9.687-21.635-21.635v-44.978c0-31.926 25.882-57.808 57.808-57.808h171.327c31.926 0 57.808 25.882 57.808 57.808v44.978z" style="" fill="#af9178" data-original="#e64b55" class=""/><path d="M113.81 217.138c2.853 8.6 10.916 14.816 20.474 14.816h243.673c9.558 0 17.622-6.217 20.474-14.816H113.81z" style="" fill="#002c2c" data-original="#50555a" class=""/><path d="M298.799 217.138h-84.528a8.389 8.389 0 0 1-8.389-8.389V166.4a8.389 8.389 0 0 1 8.389-8.389h84.528a8.389 8.389 0 0 1 8.389 8.389v42.349a8.39 8.39 0 0 1-8.389 8.389z" style="" fill="#755941" data-original="#d72846" class=""/><ellipse cx="162.258" cy="176.563" rx="23.674" ry="23.689" style="" fill="#755941" data-original="#d72846" class=""/><ellipse cx="349.979" cy="176.563" rx="23.674" ry="23.689" style="" fill="#755941" data-original="#d72846" class=""/><ellipse cx="162.258" cy="171" rx="23.674" ry="23.689" style="" fill="#e6d2c1" data-original="#fac855" class=""/><ellipse cx="349.979" cy="171" rx="23.674" ry="23.689" style="" fill="#e6d2c1" data-original="#fac855" class=""/><path d="M279.934 221.063h-46.8a4.901 4.901 0 0 1-4.902-4.902v-12.333a4.901 4.901 0 0 1 4.902-4.902h46.8a4.901 4.901 0 0 1 4.902 4.902v12.333a4.901 4.901 0 0 1-4.902 4.902z" style="" fill="#cecdcc" data-original="#b9b9be" class=""/><path d="M279.934 198.925h-46.8a4.901 4.901 0 0 0-4.902 4.902v5.566a4.901 4.901 0 0 1 4.902-4.902h46.8a4.901 4.901 0 0 1 4.902 4.902v-5.566a4.901 4.901 0 0 0-4.902-4.902z" style="" fill="#d2d2d7" data-original="#d2d2d7" class=""/><ellipse cx="349.979" cy="171" rx="13.422" ry="13.431" style="" fill="#fff6f0" data-original="#faf58c" class=""/><ellipse cx="162.258" cy="171" rx="13.422" ry="13.431" style="" fill="#fff6f0" data-original="#faf58c" class=""/><path d="M289.341 168.111h-65.613a6.92 6.92 0 0 0 0 13.838h65.613a6.92 6.92 0 0 0 0-13.838z" style="" fill="#af9178" data-original="#e64b55" class=""/><path d="M328.503 131.084a28.86 28.86 0 0 1-23.418 11.993H202.416a19.598 19.598 0 0 1-15.904-8.145l-19.733-27.399h178.686l-16.962 23.551z" style="" fill="#e6d2c1" data-original="#f75c66" class=""/><path d="M135.99 207.777v-8.968a5.459 5.459 0 0 0-5.459-5.459H112.65v16.97c0 .991.09 1.961.22 2.916h17.661a5.459 5.459 0 0 0 5.459-5.459zM382.102 193.35a5.459 5.459 0 0 0-5.459 5.459v8.968a5.459 5.459 0 0 0 5.459 5.459h17.271c.129-.956.22-1.925.22-2.916v-16.97h-17.491z" style="" fill="#99dede" data-original="#fa870a" class=""/><path d="M249.713 31.62h13.634v7.661h-13.634z" style="" fill="#646261" data-original="#696e73" class=""/><g style="opacity:0.38;"><path d="M241.53 31.62h-21.148L179.2 107.534h21.147z" style="" fill="#fff6f0" data-original="#ffffff" class=""/></g><g style="opacity:0.36;"><path d="M264.903 31.62H252.66l-41.182 75.914h12.243z" style="" fill="#fff6f0" data-original="#ffffff" class=""/></g><path d="M327.193 341.653c.036-12.935-10.081-21.779-21.551-21.698l-20.183.144c-11.913.085-21.517 9.785-21.483 21.698l.183 64.561-34.535-.101c-5.128-.031-9.958 2.521-12.856 6.77a15.503 15.503 0 0 0-1.607 14.44l29.571 74.727c3.151 7.965 12.16 11.863 20.122 8.712 7.963-3.151 11.863-12.16 8.712-20.122l-21.151-53.311h47.662c.769 0 1.519-.075 2.258-.183h24.855l.003-95.637z" style="" fill="#646261" data-original="#53618c" class=""/><path d="M394.278 496.491c0 8.563-6.942 15.505-15.505 15.505H311.74c-8.563 0-15.505-6.942-15.505-15.505v-86.668c0-8.563 6.942-15.505 15.505-15.505s15.453 6.942 15.453 15.505v71.163h51.58c8.563 0 15.505 6.941 15.505 15.505z" style="" fill="#646261" data-original="#5f6e9b" class=""/><path d="M296.235 437.292h30.958v-95.639c.036-12.934-10.082-21.779-21.551-21.697l-20.182.144c-11.913.085-21.517 9.785-21.483 21.698l.183 64.561 32.075 30.933z" style="" fill="#009999" data-original="#64afff" class=""/><path d="M278.836 310.207a28.75 28.75 0 0 0 4.342-.331c15.57-2.378 26.264-16.929 23.886-32.499-2.155-14.111-14.309-24.216-28.156-24.216-1.432 0-2.882.107-4.342.331-15.57 2.378-26.264 16.928-23.886 32.498 2.154 14.11 14.308 24.217 28.156 24.217z" style="" fill="#e6d2c1" data-original="#f7ab92" class=""/><path d="m288.543 350.71-50.067-45.392a12.923 12.923 0 0 1-3.197-4.482l-21.704-50.643c-2.812-6.559.228-14.155 6.787-16.967 6.558-2.811 14.156.228 16.966 6.787l20.595 48.054 47.98 43.5c5.287 4.793 5.687 12.965.893 18.251-4.795 5.286-12.967 5.685-18.253.892z" style="" fill="#e6d2c1" data-original="#ffb69e" class=""/><path d="m277.797 306.114-18.35 18.216 29.097 26.381c5.286 4.794 13.458 4.394 18.251-.893 4.794-5.286 4.394-13.458-.893-18.251l-28.105-25.453z" style="" fill="#38abab" data-original="#78beff" class=""/></g></svg>