<?xml version="1.0"?>
<svg xmlns="http://www.w3.org/2000/svg" xmlns:xlink="http://www.w3.org/1999/xlink" xmlns:svgjs="http://svgjs.com/svgjs" version="1.1" width="512" height="512" x="0" y="0" viewBox="0 0 512.008 512.008" style="enable-background:new 0 0 512 512" xml:space="preserve" class=""><g><g><g><path d="m315.02 70.004c21.56 36.1 31.15 79.71 25.57 121.6-1.791 13.43-17.19 128.884-19.26 144.4h-130.66c-2.045-15.335-16.916-126.826-19.26-144.4-5.58-41.89 4.01-85.5 25.57-121.6z" fill="#e6d2c1" data-original="#eefaff" class=""/><circle cx="256" cy="176.004" fill="#99dede" r="40" data-original="#91def5" class=""/><path d="m130.37 422.174c.03.06.05.13.07.19 1.19-.11 2.34-.36 3.56-.36 22.09 0 40 17.91 40 40 22.09 0 42-17.91 42-40v-46h80v46c0 22.09 19.91 40 42 40 0-22.09 17.91-40 40-40 1.22 0 2.37.25 3.56.36.02-.06.04-.13.07-.19 9.13-25.89 37.2-43.77 67.08-39.55 29.5 4.16 53.8 33.72 53.29 60.38-.61 31.42-28.49 59-62 59h-368c-34.39 0-62-28.78-62-60 0-26.35 24.17-55.27 53.29-59.38 29.88-4.22 57.95 13.66 67.08 39.55z" fill="#cecdcc" data-original="#ffda8f" class=""/><g fill="#ff7b79"><path d="m390.73 299.854c3.4 3.97 5.27 9.02 5.27 14.25 0 12.1-9.8 21.9-21.9 21.9h-52.77l14.67-100z" fill="#af9178" data-original="#ff7b79" class=""/><path d="m321.33 336.004-5.33 40c-24.401 0-91.556 0-120 0l-5.33-40z" fill="#af9178" data-original="#ff7b79" class=""/><path d="m315.02 70.004h-118.04c14.55-24.38 34.56-45.32 59.02-60 24.46 14.68 44.47 35.62 59.02 60z" fill="#af9178" data-original="#ff7b79" class=""/><path d="m190.67 336.004h-52.77c-12.1 0-21.9-9.8-21.9-21.9 0-5.23 1.87-10.28 5.27-14.25l54.73-63.85z" fill="#af9178" data-original="#ff7b79" class=""/></g></g><g><path d="m256 226.004c27.57 0 50-22.43 50-50s-22.43-50-50-50-50 22.43-50 50 22.43 50 50 50zm0-80c16.542 0 30 13.458 30 30s-13.458 30-30 30-30-13.458-30-30 13.458-30 30-30z" fill="#000000" data-original="#000000" class=""/><path d="m182.728 450.77c-4.896-21.242-23.363-37.354-45.743-38.678-13.053-26.98-43.549-43.825-75.092-39.37-32.971 4.654-61.893 37.028-61.893 69.282 0 36.229 31.564 70 72 70h139c5.522 0 10-4.477 10-10s-4.478-10-10-10h-139c-27.701 0-52-23.364-52-50 0-22.191 21.718-46.236 44.688-49.478 20.31-2.87 40.589 6.634 51.233 22.875-6.432 2.497-12.338 6.31-17.278 11.258-3.902 3.908-3.897 10.24.011 14.143 1.952 1.949 4.509 2.923 7.065 2.923 2.562 0 5.123-.979 7.076-2.934 5.044-5.052 11.637-8.449 21.204-8.786 16.542 0 30 13.458 30 30 0 5.523 4.478 10 10 10 28.187 0 52-22.897 52-50v-36h60v36c0 27.103 23.813 50 52 50 5.522 0 10-4.477 10-10 0-16.542 13.458-30 29.981-30 9.018.28 15.9 3.455 21.223 8.786 3.886 3.892 10.216 3.929 14.142.011 3.908-3.902 3.913-10.234.011-14.143-4.94-4.948-10.846-8.761-17.279-11.258 10.642-16.239 30.917-25.742 51.236-22.875 23.402 3.3 45.119 27.738 44.688 50.284-.519 26.666-24.332 49.194-52.002 49.194h-138.999c-5.522 0-10 4.477-10 10s4.478 10 10 10h139c38.303 0 71.273-31.509 71.998-68.809.627-32.804-28.294-65.735-61.89-70.473-31.558-4.454-62.044 12.399-75.093 39.37-22.38 1.323-40.847 17.436-45.743 38.678-13.114-3.757-23.272-15.595-23.272-28.766v-36h10c5.013 0 9.25-3.711 9.912-8.679l4.177-31.321h44.011c17.59 0 31.9-14.31 31.9-31.9 0-7.605-2.726-14.976-7.677-20.758l-52.972-61.799 5.15-38.623c10.179-76.399-26.992-154.065-89.355-191.494-3.168-1.901-7.125-1.901-10.293 0-62.377 37.437-99.531 115.111-89.355 191.497l5.15 38.621-52.974 61.802c-4.948 5.779-7.674 13.149-7.674 20.754 0 17.59 14.311 31.9 31.9 31.9h44.011l4.177 31.321c.662 4.968 4.899 8.679 9.912 8.679h10v36c0 13.171-10.158 25.009-23.272 28.766zm200.407-144.411c1.848 2.158 2.865 4.908 2.865 7.746 0 6.562-5.339 11.9-11.9 11.9h-41.344l9.049-67.862zm-127.135-284.546c15.233 10.013 28.895 22.989 40.288 38.191h-80.576c11.392-15.202 25.055-28.178 40.288-38.191zm-53.232 58.191h106.465c18.827 33.842 26.44 72.779 21.445 110.278l-18.102 135.722h-113.154l-18.099-135.72c-4.996-37.5 2.617-76.436 21.445-110.28zm-64.868 246c-6.562 0-11.9-5.338-11.9-11.9 0-2.837 1.018-5.588 2.862-7.742l41.333-48.219 9.049 67.861zm64.189 20h107.821l-2.665 20h-102.489z" fill="#000000" data-original="#000000" class=""/><circle cx="256" cy="502.004" r="10" fill="#000000" data-original="#000000" class=""/></g></g></g></svg>
