<svg xmlns="http://www.w3.org/2000/svg" id="Capa_1" enable-background="new 0 0 512 512" height="512" viewBox="0 0 512 512" width="512"><path d="m260.844 420.778 239.088-278.11c6.503-7.565 6.077-18.863-.976-25.917l-98.086-98.085c-7.054-7.054-18.352-7.479-25.917-.976l-278.11 239.087 5.805 23.872 128.708 128.708z" fill="#fb74c4"/><path d="m65.294 417.874 34.452 34.452-43.481 43.481c-2.881 2.881-7.169 3.838-11.002 2.453l-32.456-11.723c-5.531-1.998-7.108-9.069-2.95-13.228z" fill="#fd4eb4"/><path d="m40.247 428.439-1.401 1.401c-3.746 3.746-3.746 9.82 0 13.567l35.368 35.368c3.746 3.746 9.82 3.746 13.567 0l1.401-1.401c29.958-29.958 73.846-41.237 114.536-29.434 3.567 1.035 7.414.046 10.041-2.58l23.104-23.104-141.497-141.498-23.104 23.104c-2.626 2.626-3.615 6.474-2.58 10.041 11.802 40.689.523 84.578-29.435 114.536z" fill="#8db9c2"/><path d="m212.464 397.857-16.739 16.739c-2.626 2.626-6.474 3.615-10.041 2.58-40.69-11.802-90.943 5.841-120.901 35.799-4.52 4.52-11.849 4.52-16.369 0l25.799 25.799c3.746 3.746 9.82 3.746 13.567 0l1.401-1.401c29.958-29.958 73.846-41.237 114.536-29.434 3.567 1.035 7.414.046 10.041-2.58l23.104-23.104z" fill="#7ba0b0"/><path d="m396.47 120.546c14.02 14.02 14.02 36.751 0 50.772l-123.907 123.906c-14.02 14.02-36.751 14.02-50.772 0-14.02-14.02-14.02-36.751 0-50.772l123.907-123.907c14.021-14.019 36.752-14.019 50.772.001z" fill="#f1faff"/><path d="m223.712 436.063-142.155-142.154c-6.962-6.962-6.532-18.375.934-24.794l14.352-12.338 164.001 164.001-12.338 14.352c-6.419 7.466-17.832 7.896-24.794.933z" fill="#c7eefb"/><path d="m499.932 142.667c6.503-7.565 6.077-18.863-.976-25.917l-25.459-25.459c7.054 7.054 7.479 18.352.976 25.917l-247.44 287.825 4.323 4.323 29.487 11.421z" fill="#fd4eb4"/><path d="m248.506 435.129 12.338-14.352-25.459-25.459-12.338 14.352c-8.572 10.557-24.062 1.666-24.062 1.666l24.727 24.727c6.962 6.963 18.375 6.533 24.794-.934z" fill="#97e4f9"/><path d="m504.259 111.447-98.085-98.085c-9.769-9.769-25.631-10.369-36.11-1.36l-278.11 239.087c-.002.002-.003.003-.005.005l-14.346 12.333c-8.673 7.455-11.021 19.925-5.582 30.069l-5.062 5.062c-4.56 4.56-6.277 11.241-4.48 17.434 19.166 66.074-28.839 108.374-28.936 108.544-4.919 4.919-6.254 12.104-3.829 18.311l-25.16 25.159c-8.052 8.052-4.983 21.726 5.705 25.586l32.456 11.724c6.632 2.394 14.009.64 18.853-4.204l13.204-13.204c6.201 2.423 13.388 1.095 18.311-3.829l1.401-1.401c28.024-28.025 69.078-38.577 107.143-27.534 6.194 1.797 12.874.08 17.434-4.48l5.058-5.058c10.343 5.548 22.779 2.899 30.074-5.585 10.746-12.5 180.387-209.829 197.452-229.679 2.7-3.141 2.343-7.877-.798-10.577-3.141-2.699-7.878-2.344-10.578.798l-179.84 209.192-109.075-109.075c-2.929-2.93-7.678-2.929-10.607 0s-2.929 7.678 0 10.607l109.875 109.876-7.803 9.077c-3.549 4.129-9.893 4.43-13.802.52l-142.156-142.155c-3.867-3.867-3.655-10.213.52-13.803l9.077-7.803 19.492 19.492c2.928 2.929 7.678 2.929 10.607 0s2.929-7.678 0-10.607l-18.692-18.692 271.979-233.815c4.563-3.923 11.47-3.661 15.722.592l98.085 98.085c4.254 4.254 4.514 11.161.592 15.723l-31.067 36.137c-2.7 3.141-2.343 7.877.798 10.577s7.877 2.344 10.578-.798l31.067-36.137c9.007-10.477 8.411-26.338-1.36-36.109zm-453.298 379.057c-.822.821-2.059 1.097-3.15.702l-32.456-11.723c-.37-.133-.47-.592-.193-.869l24.142-24.142 23.845 23.845zm154.846-49.769c-43.317-12.563-90.037-.557-121.929 31.334l-1.401 1.401c-.819.819-2.139.82-2.959 0l-35.369-35.369c-.814-.815-.822-2.135 0-2.959l1.401-1.401c31.893-31.892 43.899-78.613 31.334-121.929-.273-.94-.012-1.955.68-2.648l4.321-4.321 130.89 130.89-4.321 4.321c-.691.694-1.706.954-2.647.681z"/><path d="m340.395 115.242-123.907 123.907c-16.961 16.96-16.964 44.415 0 61.379 16.921 16.921 44.455 16.923 61.379 0l123.907-123.907c16.962-16.963 16.962-44.416 0-61.379-16.962-16.961-44.415-16.963-61.379 0zm50.772 10.607c11.098 11.099 11.1 29.064-.001 40.165l-123.906 123.907c-11.074 11.073-29.092 11.072-40.165 0-11.099-11.099-11.1-29.064 0-40.164l123.907-123.907c11.098-11.099 29.065-11.101 40.165-.001-.001 0-.001 0 0 0z"/></svg>