<svg xmlns="http://www.w3.org/2000/svg" xmlns:xlink="http://www.w3.org/1999/xlink" xmlns:svgjs="http://svgjs.com/svgjs" version="1.1" width="512" height="512" x="0" y="0" viewBox="0 0 64 64" style="enable-background:new 0 0 512 512" xml:space="preserve" class=""><g><g data-name="Layer 6"><path fill="#38abab" d="M38.48 5.34A8.83 8.83 0 0 0 23.2 12l2.33 29.4a6.49 6.49 0 0 0 12.94 0L40.8 12a8.83 8.83 0 0 0-2.32-6.66zM32 49.27a6.12 6.12 0 1 0 6.11 6.12A6.12 6.12 0 0 0 32 49.27z" data-original="#e81542" class=""/><path d="M38.48 5.34A8.83 8.83 0 0 0 23.2 12l2.33 29.4a6.49 6.49 0 0 0 12.94 0L40.8 12a8.83 8.83 0 0 0-2.32-6.66zm-.67 6.44-2.33 29.39a3.49 3.49 0 0 1-7 0l-2.29-29.39a5.83 5.83 0 1 1 11.62 0zM32 49.27a6.12 6.12 0 1 0 6.11 6.12A6.12 6.12 0 0 0 32 49.27zm0 9.23a3.12 3.12 0 1 1 3.11-3.11A3.11 3.11 0 0 1 32 58.5z" fill="#000000" data-original="#000000" class=""/></g></g></svg>