<svg xmlns="http://www.w3.org/2000/svg" version="1.1" xmlns:xlink="http://www.w3.org/1999/xlink" xmlns:svgjs="http://svgjs.com/svgjs" width="512" height="512" x="0" y="0" viewBox="0 0 267 267" style="enable-background:new 0 0 512 512" xml:space="preserve" class=""><g><path fill="#38abab" d="m198.012 25.184.071.209-.658-.107a2.08 2.08 0 0 1-1.273-1.193c.109.268.168.562.168.869l.826 39.151a2.086 2.086 0 0 0 2.388 2.017l19.648-2.903a50.178 50.178 0 0 1 18.792.786l.008.002a11.483 11.483 0 0 0 14.101-11.177V33.663a11.797 11.797 0 0 0-13.715-11.642l-12.465 2.052a52.263 52.263 0 0 1-25.895-2.29l-1.196-.425c-2.173-.772-1.102 2.896-.8 3.826z" data-original="#d81a61" class=""></path><path fill="#af9178" d="M187.745 182.751c22.519 4.798 39.543 13.662 37.003 35.242-.592 5.032-2.305 8.765-5.036 11.399-2.756 2.658-6.509 4.184-11.015 4.921-9.727 1.59-22.785-.484-37.424-3.963a2.084 2.084 0 0 0-.963 4.054c15.274 3.629 28.911 5.68 39.059 4.021 5.433-.888 9.912-2.83 13.235-6.033 3.346-3.227 5.557-7.748 6.282-13.912 2.815-23.913-15.32-34.488-40.273-39.804a2.084 2.084 0 0 0-.868 4.075zm-59.168 36.058c-22.65-6.166-47.019-12.217-66.191-9.742-13.332 1.721-24.219 7.487-30.609 19.81a2.084 2.084 0 0 0 3.698 1.919c7.188-13.861 20.832-18.252 37.027-18.134 16.887.123 36.512 5.139 54.981 10.167a2.084 2.084 0 0 0 1.094-4.02zm-37.972-52.643c12.066 7.142 34.201 9.176 57.259 11.335a2.084 2.084 0 0 0 .389-4.148c-22.343-2.093-43.834-3.852-55.525-10.772a2.084 2.084 0 0 0-2.123 3.585zm40.058-46.627c-14.823 2.435-26.703 5.916-35.14 10.258-5.905 3.039-10.166 6.53-12.691 10.347a2.084 2.084 0 0 0 3.475 2.299c2.201-3.327 5.977-6.293 11.122-8.941 8.139-4.188 19.611-7.503 33.909-9.851a2.084 2.084 0 0 0-.675-4.112zm62.576-15.901s4.179 1.626 6.907 3.835c.597.484 1.124.988 1.465 1.522.199.311.353.627.136.946-.656.966-2.291 1.743-5.162 2.58-5.254 1.534-14.141 2.756-28.422 3.377a2.084 2.084 0 0 0 .181 4.163c14.779-.643 23.971-1.953 29.408-3.54 4.261-1.243 6.468-2.805 7.442-4.239 1.489-2.192.975-4.487-.859-6.566-2.885-3.272-9.575-5.957-9.575-5.957a2.084 2.084 0 0 0-1.521 3.879z" data-original="#a4b7e6" class=""></path><g fill="#d81a61"><path d="M33.626 227.753c-6.09 0-11.478 1.482-14.826 3.673-2.757 1.803-4.217 4.14-4.217 6.547 0 2.406 1.46 4.743 4.217 6.547 3.348 2.19 8.736 3.672 14.826 3.672s11.478-1.482 14.826-3.672c2.757-1.804 4.217-4.141 4.217-6.547 0-2.407-1.46-4.744-4.217-6.547-3.348-2.191-8.736-3.673-14.826-3.673zM149.969 215.53c-6.091 0-11.479 1.482-14.826 3.672-2.757 1.804-4.217 4.141-4.217 6.547s1.46 4.743 4.217 6.547c3.347 2.19 8.735 3.672 14.826 3.672 6.09 0 11.478-1.482 14.825-3.672 2.757-1.804 4.217-4.141 4.217-6.547s-1.46-4.743-4.217-6.547c-3.347-2.19-8.735-3.672-14.825-3.672zM168.578 167.779c-5.045 0-9.507 1.238-12.28 3.053-2.375 1.553-3.608 3.581-3.608 5.653 0 2.073 1.233 4.101 3.608 5.654 2.773 1.815 7.235 3.053 12.28 3.053 5.046 0 9.507-1.238 12.281-3.053 2.374-1.553 3.607-3.581 3.607-5.654 0-2.072-1.233-4.1-3.607-5.653-2.774-1.815-7.235-3.053-12.281-3.053zM82.907 144.761c-4.697 0-8.849 1.156-11.431 2.846-2.246 1.47-3.404 3.394-3.404 5.355s1.158 3.885 3.404 5.355c2.582 1.69 6.734 2.846 11.431 2.846s8.849-1.156 11.431-2.846c2.247-1.47 3.404-3.394 3.404-5.355s-1.157-3.885-3.404-5.355c-2.582-1.69-6.734-2.846-11.431-2.846zM148.059 112.429c-4.229 0-7.966 1.047-10.291 2.568-2.075 1.357-3.132 3.144-3.132 4.955s1.057 3.597 3.132 4.955c2.325 1.521 6.062 2.568 10.291 2.568 4.228 0 7.966-1.047 10.29-2.568 2.075-1.358 3.132-3.144 3.132-4.955s-1.057-3.598-3.132-4.955c-2.324-1.521-6.062-2.568-10.29-2.568zM197.684 89.607s3.541-1.846 2.626-2.093c2.833.766 5.099 2.046 6.481 3.541 1.168 1.263 1.767 2.7 1.767 4.191 0 2.029-1.134 3.991-3.291 5.512-2.545 1.796-6.637 3.024-11.267 3.024-4.631 0-8.723-1.228-11.268-3.024-2.157-1.521-3.291-3.483-3.291-5.512 0-1.491.6-2.928 1.767-4.191 1.382-1.495 3.648-2.775 6.481-3.541-.917.248 2.626 2.093 2.626 2.093l-.027 1.305a3.713 3.713 0 0 0 7.424.003z" fill="#38abab" data-original="#d81a61" class=""></path></g><path fill="#002c2c" d="m187.513 24.93-1.392 65.972A7.882 7.882 0 0 0 194 98.781a7.883 7.883 0 0 0 7.879-7.879l-1.392-65.972c-.017-3.565-2.917-6.455-6.487-6.455s-6.47 2.89-6.487 6.456z" data-original="#2d3a5a" class=""></path></g></svg>