<svg xmlns="http://www.w3.org/2000/svg" version="1.1" xmlns:xlink="http://www.w3.org/1999/xlink" width="512" height="512" x="0" y="0" viewBox="0 0 396.248 416.53" style="enable-background:new 0 0 512 512" xml:space="preserve" class=""><g><circle cx="165" cy="219.138" r="165" fill="#009999" opacity="1" data-original="#afb0cc" class=""></circle><g fill="#fff"><path d="M176.742 360.674a878.729 878.729 0 0 1-4.204 4.129c-5.668 5.54-12.722 12.434-14.164 15.102l-3.519-1.9c1.73-3.205 8.419-9.741 14.887-16.062 2.544-2.487 4.947-4.835 6.91-6.845 6.387-6.54 24.743-10.737 29.503-11.736.938-2.591 3.759-10.753 9.644-30.456 6.241-20.894.552-33.8-1.13-36.948-13.139-1.492-21.735 1.019-30.057 3.452-5.039 1.474-9.798 2.866-15.351 3.363a2.014 2.014 0 0 1-1.063-.198c-10.897-5.37-48.795-7.457-49.177-7.477l.214-3.994c1.005.054 16.318.9 30.403 2.955-1.56-3.042-2.613-7.294-.099-11.693 3.856-6.75 2.964-17.02 1.958-24.16-.904-6.41-7.23-10.216-8.928-11.128-.442.318-.856.62-1.206.884-3.415 2.583-5.135 8.091-4.338 11.105.822 3.104.027 8.22-.782 12.77-.114.64-.243 1.367-.26 1.559-.386 4.652.14 10.797 1.396 11.865 1.256-.154 2.44-.415 3.522-.81l1.372 3.758c-10.218 3.727-26.476-2.084-36.189-5.555-2.514-.899-4.685-1.674-5.924-1.976-3.813-.932-19.898 2.77-30.53 5.663.989 2.745 2.087 6.933.681 9.275-1.06 2.058-2.768 20.426 1.252 45.89 2.26 14.314 2.392 27.8 2.56 44.876.127 12.91.273 27.52 1.357 45.974 10.19 1.734 56.276 8.55 106.675-.165-.118-5.923-.535-22.568-1.584-28.6-.946-5.438-2.84-16.908-3.829-22.917zM381.542 108.868l-33.36 19.29a52.63 52.63 0 0 1 1.018 4.128c.83 4.148-.918 8.14-2.792 11.032zM341.435 114.599c.28.277.55.544.796.778 1.57 1.49 3.292 5 4.693 8.888l44.204-25.56-78.952-89.18-44.63 21.56 75.305 78.967a2 2 0 0 1 .116 2.627zM78.346 259.988c.457-.725 1.951-3.345 2.61-7.392-1.825 2.97-4.448 5.975-6.843 8.436 1.322-.336 2.745-.688 4.233-1.044zM308.271 128.47l-39.093-47.403-10.855 17.713 39.834 48.507c3.486-3.715 7.016-8.123 7.249-9.444.251-1.758 1.009-5.862 2.865-9.373z" fill="#fff6f0" opacity="1" data-original="#ffffff" class=""></path><path d="M216.812 323.385c7.869-4.033 25.68-13.326 30.872-17.446 4.418-3.508 7.577-3.791 10.365-4.041 1.899-.171 3.539-.319 5.621-1.52 1.812-1.045 6.102-5.789 14.474-25.815l.315-.752c.379-.899 1.24-2.697 2.433-5.186 4.43-9.244 13.646-28.478 15.613-38.567 2.327-11.943 8.567-34.48 11.568-38.655.925-1.287 1.26-3.109 1.616-5.037.458-2.485.978-5.301 2.998-7.32.48-.481 1.208-1.226 2.108-2.15 4.924-5.041 14.09-14.426 18.081-16.86 2.42-1.475 4.267-7.277 5.37-10.744.874-2.747 1.257-3.89 1.964-4.595.252-.252 6.148-6.223 5.068-11.625-1.27-6.35-4.213-13.286-5.802-14.795-.17-.162-.363-.354-.548-.536l-2.63 3.297c1.028 1.727 3.962 7.374 2.722 13.835l-2.908-.559a15.4 15.4 0 0 1 .022 2.118c-.355 5.908-4.493 13.127-4.668 13.432l-3.464-2.001c.039-.067 3.841-6.711 4.14-11.671.206-3.449-1.234-6.243-1.99-7.453l-9.086 11.388 3.436 1.598c-1.078 2.319-5.436 6.218-8.37 6.292-1.244.003-2.263-.544-2.809-1.578-1.08-2.048.555-5.06 3.538-10.207.891-1.537 2.104-3.63 2.289-4.303.01-1.323-.557-4.014-1.782-4.97-.34-.265-.869-.53-1.955-.226-3.602 1.014-5.496 7.818-6.048 11.68-.574 4.022-10.123 13.58-11.856 15.172-3.222 2.956-3.002 9.164-2.842 13.696.054 1.531.1 2.854.015 3.925-.36 4.516-16.229 47.18-26.197 59.554-9.43 11.706-18.151 28.873-19.502 32.475-1.64 4.374-6.447 8.7-6.65 8.882-.28.248-.621.414-.989.477-5.292.925-16.879 3.028-21.956 3.952 2.46 5.819 5.89 18.6.244 37.504-1.033 3.46-1.969 6.553-2.82 9.335zM156.004 254.927c9.731-6.515 22.5-15.86 24.244-19.444 2.779-5.712 8.363-39.387 9.63-55.593 1.213-15.534 3.262-29.26 4.415-32.335.102-.275.243-.63.41-1.053 1.238-3.124 4.414-11.139 3.527-16.612l-20.117-8.28c-.088 1.337.005 3.153.14 4.348l-3.974.452c-.055-.486-.522-4.822.18-7.181.492-1.656.364-8.244-1.356-10.891-1.114-1.714-3.94-2.23-5.414-2.322-.174.123-.283.244-.311.348-.205.745 1.016 2.624 1.746 3.746.736 1.133 1.431 2.203 1.701 3.239.528 2.021-.3 4.59-1.26 7.565-.573 1.78-1.166 3.62-1.33 5.057-.199 1.734 4.212 8.558 6.332 11.838 2.19 3.385 3.447 5.363 3.831 6.612 1.218 3.96-7.833 38.374-9.543 42.336-1.927 4.461-9.479 22.156-10.654 24.91.024.915-.066 1.744-.322 2.418-1.004 2.648-5.465 6.033-11.733 10.462 3.112 2.003 8.354 6.312 9.311 13.1.748 5.3 1.333 11.49.547 17.28z" fill="#fff6f0" opacity="1" data-original="#ffffff" class=""></path><path d="M154.14 212.667c.549-1.447-1.128-6.982-3.038-11.243a2.005 2.005 0 0 1-.168-.982c.186-2.32-.106-6.303-1.324-7.48a1.997 1.997 0 0 1-.608-1.355c-.002-.04-.265-4.72-3.252-6.008a2 2 0 0 1-1.196-2.056c.37-3.366.704-7.378.696-8.903-1.505-1.001-6.929-3.05-11.527-4.493a2.009 2.009 0 0 1-1.066-.8c-.063-.095-6.463-9.574-17.524-16.808-14.627-9.564-30.127-10.887-46.067-3.935-36.413 15.883-30.068 45.67-27.359 58.388.166.778.318 1.493.447 2.14 2.098 10.493 15.347 20.5 20.378 21.916 4.652 1.308 23.463 12.297 22.585 20.629a26.91 26.91 0 0 1-1.748 7.163c7.223-1.57 14.654-2.798 17.737-2.049 1.442.35 3.597 1.121 6.324 2.096 6.84 2.444 17.098 6.105 25.555 6.504-1.53-4.263-1.118-10.748-.987-12.327.03-.362.12-.88.307-1.927.454-2.555 1.518-8.536.853-11.047-1.14-4.31.957-11.66 5.79-15.317.983-.744 2.28-1.656 3.783-2.712 3.473-2.442 10.698-7.522 11.408-9.394zM270.03 201.688l12.207-7.415.064.104a398.495 398.495 0 0 0 5.437-14.18zM202.174 129.242l53.815-31.247 11.575-18.885-26.762-32.451-38.743 82.029c.037.185.085.366.115.554zM198.967 125.867l38.6-81.725L118.65 4.715l-5.364 85.925 52.409 21.536c-1.292-1.988-2.844-4.438-2.176-6.87.363-1.325 1.298-2.368 2.778-3.099.27-.132.565-.204.865-.207.26-.005 6.579-.017 9.293 4.159 1.908 2.933 2.384 7.958 2.22 11.357zM247.522 15.885l-5.043 26.52 68.207 82.707c1.02-1.023 2.217-1.828 3.644-2.229 2.624-.738 4.438.095 5.499.922 2.387 1.863 3.131 5.341 3.285 7.343l15.638-19.599zM296.478 149.024l-39.905-48.593-53.544 31.091 58 74.8 29.692-36.034c.02-.78-.013-1.76-.052-2.866-.177-5.01-.444-12.582 4.134-16.785.53-.486 1.094-1.03 1.675-1.613zM194.082 177.56l37.412 53.595 26.715-21.943-56.287-72.589c-.818 4.568-2.544 8.94-3.5 11.353-.157.396-.288.727-.384.983-.744 1.984-2.636 13.063-3.956 28.6zM109.27 90.788l5.18-82.98-6.682 7.75-4.165 78.732zM332.37 125.96l.463-.37c.092.113 1.438 1.821 2.39 4.542-.255-2.33-1.015-4.344-1.648-5.682z" fill="#fff6f0" opacity="1" data-original="#ffffff" class=""></path></g><path d="M314.168 5.739a2.001 2.001 0 0 0-2.368-.475l-47.155 22.78L247.73 10.31a2 2 0 0 0-3.412 1.006l-5.518 29.022L117.446.102a1.998 1.998 0 0 0-2.144.593l-11.01 12.77c-.29.335-.459.758-.482 1.2l-4.403 83.23a2 2 0 0 0 3.048 1.807l8.93-5.52 55.226 22.694c-.248.93-.573 1.943-.853 2.81-.633 1.966-1.288 3.998-1.498 5.83-.335 2.938 2.534 7.635 6.948 14.465 1.424 2.202 3.032 4.69 3.343 5.545.343 3.59-7.27 34.785-9.368 39.645a8691.602 8691.602 0 0 0-8.435 19.711 57.704 57.704 0 0 0-1.792-4.635c.101-1.858.138-6.767-2.025-9.556-.209-1.697-1.038-5.816-4.26-8.029.28-2.733.731-7.625.509-9.105-.16-1.063-.426-2.832-13.615-7.023-3.59-4.943-29.708-38.345-68.098-21.596-39.406 17.19-32.585 49.214-29.672 62.889.162.758.31 1.458.437 2.09 2.54 12.7 17.614 23.406 23.218 24.982 4.11 1.156 13.568 7.413 17.702 12.304l-.042-.011c-1.487 5.369-10.212 13.575-13.448 16.283v.001a1.998 1.998 0 0 0-.546 2.34c1.39 3.155 2.248 6.918 1.766 7.742-1.865 3.107-3.297 23.068.73 48.57 2.214 14.025 2.345 27.382 2.511 44.293.13 13.23.278 28.224 1.431 47.332l3.993-.24-.067-1.156c-1.084-18.455-1.23-33.064-1.356-45.975-.168-17.075-.3-30.562-2.561-44.877-4.02-25.463-2.313-43.83-1.251-45.888 1.405-2.343.307-6.53-.682-9.276 10.632-2.892 26.718-6.595 30.53-5.663 1.24.302 3.41 1.077 5.924 1.976 9.714 3.471 25.972 9.282 36.189 5.555l-1.371-3.757c-1.083.395-2.267.655-3.523.81-1.255-1.069-1.782-7.214-1.395-11.866.016-.191.145-.918.26-1.559.809-4.55 1.603-9.666.782-12.77-.798-3.014.923-8.522 4.337-11.105.35-.265.765-.566 1.207-.884 1.697.912 8.023 4.717 8.927 11.129 1.007 7.138 1.899 17.41-1.958 24.159-2.513 4.4-1.46 8.651.1 11.694-14.085-2.056-29.399-2.902-30.403-2.956l-.214 3.994c.381.02 38.28 2.107 49.177 7.477.33.162.695.23 1.062.198 5.553-.497 10.313-1.889 15.351-3.362 8.322-2.434 16.919-4.945 30.058-3.452 1.681 3.148 7.37 16.053 1.13 36.947-5.886 19.703-8.706 27.865-9.644 30.456-4.76.999-23.117 5.196-29.504 11.736-1.963 2.01-4.365 4.359-6.91 6.845-6.468 6.321-13.157 12.857-14.887 16.061l3.52 1.9c1.441-2.667 8.495-9.56 14.163-15.1a869.39 869.39 0 0 0 4.205-4.13c.988 6.009 2.883 17.48 3.829 22.917 1.048 6.032 1.465 22.677 1.583 28.6a419.6 419.6 0 0 1 .038 2.132l4-.057c-.013-.964-.348-23.696-1.68-31.36-1.127-6.479-3.607-21.559-4.282-25.673 5.94-5.07 21.898-9.03 27.79-10.168a2 2 0 0 0 1.478-1.22c.08-.198 1.572-3.976 5.67-17.135 3.36-1.693 28.318-14.335 35.001-19.638 3.482-2.764 5.685-2.961 8.237-3.19 2.07-.186 4.417-.397 7.263-2.039 4.108-2.37 9.245-11.184 16.165-27.737l.311-.742c.341-.81 1.23-2.664 2.354-5.01 4.5-9.394 13.867-28.94 15.931-39.53 2.577-13.221 8.684-34.017 10.89-37.087 1.448-2.014 1.902-4.475 2.302-6.646.387-2.097.752-4.077 1.893-5.218.488-.488 1.227-1.245 2.142-2.181 4.459-4.567 13.737-14.069 17.301-16.24 2.679-1.634 4.447-5.33 5.765-8.96l54.924-53.853-.003-.004c.3-.295.508-.678.577-1.103a2.001 2.001 0 0 0-.477-1.647zm18.665 119.85-.464.372 1.206-1.511c.633 1.338 1.393 3.353 1.648 5.682-.952-2.72-2.298-4.43-2.39-4.543zm-9.72 5.559c-.153-2.002-.897-5.48-3.284-7.343-1.06-.827-2.875-1.66-5.499-.922-1.427.401-2.623 1.206-3.644 2.229L242.48 42.405l5.042-26.52 91.23 95.664zm-168.161 143.76c-1.452-1.76-4.434-6.193-1.94-10.558.68-1.19 1.224-2.456 1.675-3.764 3.99-2.59 26.142-17.156 29.157-23.353 2.99-6.146 8.039-36.929 9.698-53.459l35.91 51.444a2.002 2.002 0 0 0 2.91.401l29.78-24.46 17.65-10.722c-4.766 11.248-10.216 22.59-14.423 27.813-9.86 12.24-18.679 29.706-20.132 33.58-1.055 2.815-4.073 5.877-5.168 6.927-6.06 1.064-18.647 3.352-22.63 4.077a1.996 1.996 0 0 0-1.288-.726c-14.522-1.844-24.158.976-32.662 3.464-4.677 1.368-9.104 2.662-14.05 3.166-3.382-1.538-8.634-2.802-14.487-3.83zm21.505-168.75c-2.715-4.175-9.034-4.163-9.293-4.158-.3.003-.597.074-.866.207-1.48.73-2.415 1.774-2.778 3.1-.668 2.431.884 4.88 2.176 6.869L113.287 90.64l5.364-85.925 118.915 39.427-38.6 81.725-20.29-8.35c.164-3.4-.312-8.425-2.22-11.359zm91.107-27.048-11.575 18.885-53.815 31.247c-.03-.188-.078-.369-.115-.554l38.743-82.03zM114.45 7.808l-5.18 82.98-5.667 3.502 4.165-78.731zm87.472 128.815 56.287 72.59-26.715 21.943-37.412-53.596c1.32-15.538 3.212-26.617 3.956-28.6.096-.257.227-.588.384-.984.956-2.412 2.682-6.785 3.5-11.353zm80.379 57.754-.064-.104-12.208 7.415 17.71-21.49a398.476 398.476 0 0 1-5.438 14.18zm8.368-26.955c.039 1.106.072 2.085.052 2.866l-29.692 36.034-58-74.8 53.544-31.09 39.905 48.592a53.754 53.754 0 0 1-1.675 1.613c-4.578 4.203-4.31 11.774-4.134 16.785zm7.488-20.135L258.323 98.78l10.855-17.713 39.093 47.403c-1.856 3.51-2.614 7.615-2.865 9.373-.233 1.321-3.763 5.729-7.25 9.444zm44.694-37.235-75.306-78.966 44.631-21.561 78.952 89.18-44.204 25.56c-1.401-3.887-3.124-7.398-4.693-8.888-.247-.234-.516-.501-.795-.778l1.531-1.92a1.999 1.999 0 0 0-.116-2.627zm6.349 22.234a52.675 52.675 0 0 0-1.018-4.128l33.36-19.29-35.134 34.45c1.874-2.892 3.621-6.884 2.792-11.032zM78.346 259.988c-1.488.356-2.911.708-4.233 1.044 2.395-2.46 5.018-5.466 6.843-8.436-.659 4.047-2.153 6.667-2.61 7.392zm60.603-35.215c-4.834 3.657-6.932 11.008-5.79 15.317.664 2.51-.4 8.492-.854 11.047-.186 1.047-.277 1.565-.307 1.927-.132 1.579-.543 8.064.987 12.327-8.458-.399-18.716-4.06-25.555-6.504-2.727-.975-4.882-1.745-6.325-2.096-3.082-.749-10.513.48-17.737 2.05a26.907 26.907 0 0 0 1.75-7.164c.877-8.332-17.934-19.321-22.586-20.629-5.031-1.416-18.28-11.423-20.378-21.917-.13-.646-.281-1.361-.447-2.138-2.71-12.72-9.054-42.505 27.359-58.39 15.94-6.951 31.44-5.628 46.067 3.936 11.06 7.234 17.46 16.713 17.524 16.809.253.379.63.662 1.066.799 4.598 1.443 10.022 3.492 11.526 4.493.01 1.525-.325 5.537-.695 8.903a2 2 0 0 0 1.195 2.056c2.988 1.288 3.25 5.968 3.253 6.008.02.512.239.998.608 1.354 1.218 1.178 1.51 5.161 1.323 7.48-.027.337.03.675.168.983 1.91 4.26 3.587 9.796 3.038 11.243-.71 1.872-7.935 6.952-11.408 9.394-1.503 1.056-2.8 1.969-3.782 2.712zm7.197-.226c6.268-4.428 10.729-7.814 11.733-10.462.256-.674.346-1.502.322-2.417 1.175-2.755 8.727-20.45 10.654-24.91 1.71-3.963 10.761-38.376 9.543-42.337-.384-1.249-1.642-3.226-3.83-6.612-2.12-3.28-6.532-10.104-6.334-11.838.165-1.437.758-3.277 1.331-5.057.96-2.974 1.788-5.543 1.26-7.565-.27-1.036-.965-2.105-1.701-3.238-.73-1.122-1.951-3.001-1.747-3.746.03-.105.138-.226.311-.349 1.474.092 4.3.608 5.415 2.322 1.72 2.647 1.848 9.236 1.356 10.89-.702 2.36-.235 6.696-.18 7.183l3.974-.453c-.135-1.195-.228-3.01-.14-4.348l20.117 8.28c.887 5.474-2.289 13.488-3.527 16.612-.167.424-.308.779-.41 1.053-1.153 3.074-3.202 16.8-4.416 32.335-1.266 16.206-6.85 49.881-9.63 55.593-1.743 3.584-14.512 12.93-24.243 19.444.786-5.79.2-11.98-.547-17.279-.957-6.79-6.199-11.098-9.311-13.1zm73.242 51.999c5.077-.924 16.664-3.028 21.956-3.952.367-.063.71-.23.988-.477.204-.183 5.01-4.508 6.65-8.882 1.351-3.603 10.073-20.77 19.502-32.475 9.97-12.375 25.837-55.038 26.198-59.555.086-1.07.039-2.393-.015-3.924-.16-4.533-.38-10.74 2.841-13.697 1.734-1.591 11.283-11.15 11.857-15.172.552-3.86 2.446-10.666 6.048-11.68 1.086-.303 1.615-.038 1.955.226 1.225.956 1.791 3.648 1.781 4.971-.185.673-1.397 2.766-2.288 4.303-2.984 5.147-4.619 8.159-3.538 10.207.546 1.034 1.565 1.58 2.81 1.578 2.932-.074 7.29-3.974 8.368-6.292l-3.435-1.599 9.087-11.387c.754 1.21 2.195 4.004 1.988 7.453-.298 4.96-4.1 11.604-4.139 11.67l3.463 2.001c.176-.304 4.314-7.523 4.67-13.431a15.4 15.4 0 0 0-.024-2.118l2.908.558c1.24-6.46-1.694-12.107-2.722-13.834l2.631-3.297c.185.182.378.374.547.535 1.59 1.51 4.532 8.446 5.803 14.795 1.08 5.403-4.817 11.373-5.068 11.625-.707.706-1.09 1.849-1.964 4.596-1.104 3.467-2.95 9.269-5.37 10.743-3.992 2.435-13.157 11.82-18.08 16.861-.901.923-1.629 1.668-2.11 2.149-2.02 2.02-2.539 4.836-2.997 7.32-.356 1.929-.691 3.75-1.616 5.037-3.002 4.175-9.24 26.713-11.568 38.656-1.967 10.088-11.184 29.323-15.613 38.567-1.193 2.49-2.054 4.287-2.433 5.186l-.315.752c-8.372 20.026-12.662 24.77-14.474 25.815-2.082 1.201-3.723 1.349-5.621 1.52-2.788.25-5.947.533-10.366 4.04-5.192 4.121-23.002 13.414-30.871 17.446.85-2.781 1.786-5.874 2.82-9.334 5.647-18.904 2.216-31.685-.244-37.504z" fill="#000000" opacity="1" data-original="#000000" class=""></path></g></svg>