<svg version="1.1" xmlns="http://www.w3.org/2000/svg" viewBox="0 0 115.5284689043308 114.4027125367714" width="115.5284689043308" height="114.4027125367714">
  <!-- svg-source:excalidraw -->
  
  <defs>
    <style>
      @font-face {
        font-family: "Virgil";
        src: url("https://excalidraw.com/Virgil.woff2");
      }
      @font-face {
        font-family: "Cascadia";
        src: url("https://excalidraw.com/Cascadia.woff2");
      }
    </style>
  </defs>
  <g stroke-linecap="round"><g transform="translate(24.313188101827336 37.9830868507637) rotate(0 33.45104635033806 19.218269417622004)"><path d="M0 0 C-1.23 -1.23, -8.44 -3.91, -7.4 -7.4 C-6.35 -10.88, 2.49 -19.83, 6.27 -20.91 C10.05 -21.98, 12.41 -14.39, 15.28 -13.83 C18.15 -13.27, 22.09 -15.39, 23.48 -17.53 C24.87 -19.67, 20.34 -24.95, 23.64 -26.7 C26.94 -28.44, 40.02 -29.35, 43.26 -27.98 C46.5 -26.62, 41.65 -20.64, 43.1 -18.49 C44.55 -16.35, 49.18 -14.74, 51.95 -15.12 C54.71 -15.49, 56.1 -21.85, 59.67 -20.75 C63.23 -19.65, 72.02 -11.93, 73.33 -8.52 C74.65 -5.12, 68.14 -3.08, 67.55 -0.32 C66.96 2.44, 67.52 6.38, 69.8 8.04 C72.08 9.7, 79.45 6.27, 81.22 9.65 C82.98 13.03, 82.21 24.98, 80.41 28.3 C78.62 31.63, 72.66 27.93, 70.44 29.59 C68.22 31.25, 66.55 35.51, 67.06 38.28 C67.57 41.04, 74.81 42.75, 73.5 46.16 C72.18 49.56, 62.83 57.47, 59.18 58.7 C55.54 59.93, 54.22 53.96, 51.62 53.55 C49.02 53.15, 45.03 54.25, 43.58 56.29 C42.14 58.32, 46.24 64.09, 42.94 65.78 C39.64 67.46, 27.18 68, 23.8 66.42 C20.42 64.84, 24.36 58.46, 22.68 56.29 C20.99 54.12, 16.3 52.86, 13.67 53.39 C11.04 53.93, 10.4 60.66, 6.92 59.5 C3.43 58.35, -5.87 49.96, -7.24 46.48 C-8.6 42.99, -1.82 41.36, -1.29 38.6 C-0.75 35.84, -1.96 31.55, -4.02 29.91 C-6.08 28.28, -11.95 32.33, -13.67 28.79 C-15.39 25.25, -16.11 12.01, -14.31 8.68 C-12.52 5.36, -5.26 10.27, -2.89 8.85 C-0.53 7.42, -0.58 1.57, -0.11 0.11 M0 0 C-1.23 -1.23, -8.44 -3.91, -7.4 -7.4 C-6.35 -10.88, 2.49 -19.83, 6.27 -20.91 C10.05 -21.98, 12.41 -14.39, 15.28 -13.83 C18.15 -13.27, 22.09 -15.39, 23.48 -17.53 C24.87 -19.67, 20.34 -24.95, 23.64 -26.7 C26.94 -28.44, 40.02 -29.35, 43.26 -27.98 C46.5 -26.62, 41.65 -20.64, 43.1 -18.49 C44.55 -16.35, 49.18 -14.74, 51.95 -15.12 C54.71 -15.49, 56.1 -21.85, 59.67 -20.75 C63.23 -19.65, 72.02 -11.93, 73.33 -8.52 C74.65 -5.12, 68.14 -3.08, 67.55 -0.32 C66.96 2.44, 67.52 6.38, 69.8 8.04 C72.08 9.7, 79.45 6.27, 81.22 9.65 C82.98 13.03, 82.21 24.98, 80.41 28.3 C78.62 31.63, 72.66 27.93, 70.44 29.59 C68.22 31.25, 66.55 35.51, 67.06 38.28 C67.57 41.04, 74.81 42.75, 73.5 46.16 C72.18 49.56, 62.83 57.47, 59.18 58.7 C55.54 59.93, 54.22 53.96, 51.62 53.55 C49.02 53.15, 45.03 54.25, 43.58 56.29 C42.14 58.32, 46.24 64.09, 42.94 65.78 C39.64 67.46, 27.18 68, 23.8 66.42 C20.42 64.84, 24.36 58.46, 22.68 56.29 C20.99 54.12, 16.3 52.86, 13.67 53.39 C11.04 53.93, 10.4 60.66, 6.92 59.5 C3.43 58.35, -5.87 49.96, -7.24 46.48 C-8.6 42.99, -1.82 41.36, -1.29 38.6 C-0.75 35.84, -1.96 31.55, -4.02 29.91 C-6.08 28.28, -11.95 32.33, -13.67 28.79 C-15.39 25.25, -16.11 12.01, -14.31 8.68 C-12.52 5.36, -5.26 10.27, -2.89 8.85 C-0.53 7.42, -0.58 1.57, -0.11 0.11" stroke="#000000" stroke-width="4" fill="none"/></g></g><g stroke-linecap="round" transform="translate(33.299458474310995 32.94767984036298) rotate(0 23.962528395194113 23.560472549637176)"><path d="M47.93 23.56 C47.93 24.92, 47.8 26.31, 47.56 27.65 C47.32 28.99, 46.95 30.34, 46.48 31.62 C46.01 32.9, 45.41 34.16, 44.71 35.34 C44.02 36.52, 43.21 37.66, 42.32 38.7 C41.43 39.75, 40.43 40.73, 39.37 41.61 C38.3 42.49, 37.14 43.28, 35.94 43.96 C34.74 44.65, 33.46 45.23, 32.16 45.7 C30.85 46.17, 29.49 46.53, 28.12 46.76 C26.76 47, 25.35 47.12, 23.96 47.12 C22.58 47.12, 21.17 47, 19.8 46.76 C18.44 46.53, 17.07 46.17, 15.77 45.7 C14.46 45.23, 13.18 44.65, 11.98 43.96 C10.78 43.28, 9.62 42.49, 8.56 41.61 C7.5 40.73, 6.5 39.75, 5.61 38.7 C4.71 37.66, 3.9 36.52, 3.21 35.34 C2.52 34.16, 1.92 32.9, 1.45 31.62 C0.97 30.34, 0.6 28.99, 0.36 27.65 C0.12 26.31, 0 24.92, 0 23.56 C0 22.2, 0.12 20.81, 0.36 19.47 C0.6 18.13, 0.97 16.78, 1.45 15.5 C1.92 14.22, 2.52 12.96, 3.21 11.78 C3.9 10.6, 4.71 9.46, 5.61 8.42 C6.5 7.37, 7.5 6.39, 8.56 5.51 C9.62 4.64, 10.78 3.84, 11.98 3.16 C13.18 2.47, 14.46 1.89, 15.77 1.42 C17.07 0.95, 18.44 0.59, 19.8 0.36 C21.17 0.12, 22.58 0, 23.96 0 C25.35 0, 26.76 0.12, 28.12 0.36 C29.49 0.59, 30.85 0.95, 32.16 1.42 C33.46 1.89, 34.74 2.47, 35.94 3.16 C37.14 3.84, 38.3 4.64, 39.37 5.51 C40.43 6.39, 41.43 7.37, 42.32 8.42 C43.21 9.46, 44.02 10.6, 44.71 11.78 C45.41 12.96, 46.01 14.22, 46.48 15.5 C46.95 16.78, 47.32 18.13, 47.56 19.47 C47.8 20.81, 47.86 22.88, 47.93 23.56 C47.99 24.24, 47.99 22.88, 47.93 23.56" stroke="#000000" stroke-width="4" fill="none"/></g><g stroke-linecap="round"><g transform="translate(69.41563529669702 56.64064390105062) rotate(0 -9.754696748018205 0)" fill-rule="evenodd"><path d="M0 0 L-19.51 -9.75 L-19.51 9.75 L0 0" stroke="none" stroke-width="0" fill="#000000" fill-rule="evenodd"/><path d="M0 0 C-6.62 -3.31, -13.24 -6.62, -19.51 -9.75 M0 0 C-6.76 -3.38, -13.51 -6.76, -19.51 -9.75 M-19.51 -9.75 C-19.51 -2.03, -19.51 5.69, -19.51 9.75 M-19.51 -9.75 C-19.51 -4.46, -19.51 0.83, -19.51 9.75 M-19.51 9.75 C-15.16 7.58, -10.81 5.41, 0 0 M-19.51 9.75 C-15.54 7.77, -11.58 5.79, 0 0 M0 0 C0 0, 0 0, 0 0 M0 0 C0 0, 0 0, 0 0" stroke="#000000" stroke-width="1" fill="none"/></g></g></svg>