<svg xmlns="http://www.w3.org/2000/svg" xmlns:xlink="http://www.w3.org/1999/xlink" version="1.1" width="512" height="512" x="0" y="0" viewBox="0 0 512 512" style="enable-background:new 0 0 512 512" xml:space="preserve" class=""><g><path d="M429.747 94.374c0 47.979-38.895 121.624-86.874 121.624s-86.874-73.644-86.874-121.624S294.894 7.5 342.873 7.5s86.874 38.895 86.874 86.874z" style="" fill="#e6d2c1" data-original="#68ca44" class="" opacity="1"/><path d="M390.818 85.823c-11.245 0-22.18 1.643-32.549 4.718-4.026 1.194-8.348-.231-10.907-3.562-17.84-23.22-44.323-39.464-74.59-43.902-10.538 14.377-16.774 32.105-16.774 51.296 0 47.979 38.895 121.623 86.874 121.623s86.874-73.644 86.874-121.623c0-.608-.033-1.209-.046-1.814a115.948 115.948 0 0 0-38.882-6.736z" style="" fill="#af9178" data-original="#4fc123" class="" opacity="1"/><path d="M476.184 217.609c-9.174 47.094-61.432 111.943-108.526 102.769s-71.19-88.896-62.016-135.99 54.788-77.834 101.882-68.661 77.834 54.788 68.66 101.882z" style="" fill="#fff6f0" data-original="#ffe177" class="" opacity="1"/><path d="M305.642 184.387c-5.211 26.753.318 64.031 14.697 92.929 7.425-7.428 14.422-16.183 20.869-26.192 18.474-28.683 29.95-64.747 29.95-94.12 0-13.594-2.374-26.642-6.719-38.76-29.191 9.367-52.522 33.927-58.797 66.143zM349.195 349.714c-6.789-1.323-10.284-8.934-6.844-14.934 5.881-10.257 15.669-16.28 25.307-14.402 9.638 1.877 16.45 11.134 18.051 22.848.937 6.853-5.16 12.596-11.949 11.273l-24.565-4.785z" style="" fill="#e6d2c1" data-original="#ffd15b" class="" opacity="1"/><path d="M82.251 94.374c0 47.979 38.895 121.624 86.874 121.624s86.874-73.644 86.874-121.624S217.104 7.5 169.125 7.5 82.251 46.395 82.251 94.374z" style="" fill="#e6d2c1" data-original="#68ca44" class="" opacity="1"/><path d="M121.18 85.823c11.245 0 22.179 1.643 32.549 4.718 4.026 1.194 8.348-.231 10.907-3.562 17.84-23.22 44.323-39.464 74.59-43.902C249.764 57.454 256 75.182 256 94.373c0 47.979-38.895 121.623-86.874 121.623S82.251 142.353 82.251 94.374c0-.608.033-1.209.046-1.814a115.562 115.562 0 0 1 16.77-4.596 115.886 115.886 0 0 1 22.113-2.141z" style="" fill="#af9178" data-original="#4fc123" class="" opacity="1"/><path d="M35.814 217.609c9.174 47.094 61.432 111.943 108.526 102.769s71.19-88.896 62.016-135.99-54.788-77.834-101.882-68.661-77.834 54.788-68.66 101.882z" style="" fill="#fff6f0" data-original="#ffe177" class="" opacity="1"/><path d="M206.356 184.387c5.211 26.753-.318 64.031-14.697 92.929-7.425-7.428-14.422-16.183-20.869-26.192-18.474-28.683-29.95-64.747-29.95-94.12 0-13.594 2.374-26.642 6.719-38.76 29.191 9.367 52.522 33.927 58.797 66.143zM162.803 349.714c6.789-1.323 10.284-8.934 6.844-14.934-5.881-10.257-15.669-16.28-25.307-14.402s-16.45 11.134-18.051 22.848c-.937 6.853 5.16 12.596 11.949 11.273l24.565-4.785z" style="" fill="#e6d2c1" data-original="#ffd15b" class="" opacity="1"/><path d="M342.873 157.004c0 47.979-38.895 121.624-86.874 121.624s-86.874-73.644-86.874-121.624S208.02 70.13 255.999 70.13s86.874 38.895 86.874 86.874z" style="" fill="#99dede" data-original="#0573ce" class="" opacity="1"/><path d="M301.995 83.315c6.833 12.41 10.729 26.665 10.729 41.833 0 47.979-38.895 121.623-86.874 121.623-10.812 0-21.159-3.749-30.707-10.091 15.674 23.971 37.154 41.946 60.856 41.946 47.979 0 86.874-73.644 86.874-121.623 0-31.082-16.335-58.335-40.878-73.688z" style="" fill="#38abab" data-original="#0067c5" class="" opacity="1"/><path d="M243.486 310.953c-6.917 0-11.803-6.802-9.573-13.35 3.811-11.192 12.267-18.975 22.086-18.975 9.819 0 18.275 7.783 22.086 18.975 2.23 6.548-2.656 13.35-9.573 13.35h-25.026z" style="" fill="#99dede" data-original="#0573ce" class="" opacity="1"/><path d="M147.479 352.7c1.86 1.75 3.36 4.01 4.03 7.45 2.33 12.03-10.18 14.45-7.85 26.48 2.33 12.02 14.83 9.6 17.16 21.63s-10.17 14.45-7.84 26.48c2.32 12.03 14.83 9.61 17.16 21.64s-10.18 14.45-7.85 26.48c2.33 12.03 14.84 9.61 17.17 21.64M330.599 504.5c2.33-12.03 14.83-9.61 17.16-21.64 2.33-12.03-10.17-14.45-7.85-26.48 2.33-12.03 14.84-9.61 17.17-21.64 2.33-12.03-10.18-14.45-7.85-26.48s14.83-9.61 17.16-21.63c2.33-12.03-10.17-14.45-7.85-26.48.7-3.64 2.35-5.97 4.36-7.77M259.403 70.201C269.879 33.976 303.275 7.5 342.873 7.5c47.983 0 86.874 38.891 86.874 86.874 0 8.465-1.212 17.738-3.465 27.264M473.199 173.09c4.72 13.86 5.99 29.11 2.99 44.51-9.18 47.11-61.43 111.95-108.53 102.78-28.99-5.65-49.27-38.05-58.43-73.1" style="stroke-width:15;stroke-linecap:round;stroke-linejoin:round;stroke-miterlimit:10;" fill="none" stroke="#000000" stroke-width="15" stroke-linecap="round" stroke-linejoin="round" stroke-miterlimit="10" data-original="#000000" class=""/><path d="M339.029 131.34c18.93-14.11 43.5-20.48 68.49-15.61 19.29 3.76 35.83 13.62 48.01 27.2M349.195 349.714c-6.789-1.323-10.284-8.934-6.844-14.934 5.881-10.257 15.669-16.28 25.307-14.402 9.638 1.877 16.45 11.134 18.051 22.848.937 6.853-5.16 12.596-11.949 11.273l-24.565-4.785zM55.389 144.15c12.28-14.21 29.23-24.55 49.09-28.42 24.99-4.87 49.56 1.5 68.49 15.61M38.259 174.75c-4.27 13.41-5.33 28.06-2.45 42.85 9.18 47.11 61.43 111.95 108.53 102.78 28.99-5.65 49.27-38.05 58.43-73.1" style="stroke-width:15;stroke-linecap:round;stroke-linejoin:round;stroke-miterlimit:10;" fill="none" stroke="#000000" stroke-width="15" stroke-linecap="round" stroke-linejoin="round" stroke-miterlimit="10" data-original="#000000" class=""/><path d="M162.803 349.714c6.789-1.323 10.284-8.934 6.844-14.934-5.881-10.257-15.669-16.28-25.307-14.402s-16.45 11.134-18.051 22.848c-.937 6.853 5.16 12.596 11.949 11.273l24.565-4.785zM342.873 157.004c0 47.979-38.895 121.624-86.874 121.624s-86.874-73.644-86.874-121.624S208.02 70.13 255.999 70.13s86.874 38.895 86.874 86.874z" style="stroke-width:15;stroke-linecap:round;stroke-linejoin:round;stroke-miterlimit:10;" fill="none" stroke="#000000" stroke-width="15" stroke-linecap="round" stroke-linejoin="round" stroke-miterlimit="10" data-original="#000000" class=""/><path d="M243.486 310.953c-6.917 0-11.803-6.802-9.573-13.35 3.811-11.192 12.267-18.975 22.086-18.975 9.819 0 18.275 7.783 22.086 18.975 2.23 6.548-2.656 13.35-9.573 13.35h-25.026zM255.999 310.953v27.772c0 7.022-1.856 13.852-4.864 20.197-.738 1.557-1.197 3.384-1.197 5.651 0 11.657 12.122 11.657 12.122 23.325 0 11.657-12.122 11.657-12.122 23.315s12.122 11.657 12.122 23.325c0 11.657-12.122 11.657-12.122 23.315 0 11.667 12.122 11.667 12.122 23.325 0 11.667-12.122 11.667-12.122 23.325M252.599 70.2c-5.05-17.45-15.41-32.63-29.23-43.69M85.719 121.64c-2.26-9.53-3.47-18.8-3.47-27.27 0-47.98 38.89-86.87 86.88-86.87 7.97 0 15.7 1.08 23.04 3.09" style="stroke-width:15;stroke-linecap:round;stroke-linejoin:round;stroke-miterlimit:10;" fill="none" stroke="#000000" stroke-width="15" stroke-linecap="round" stroke-linejoin="round" stroke-miterlimit="10" data-original="#000000" class=""/></g></svg>