<svg xmlns="http://www.w3.org/2000/svg" version="1.1" xmlns:xlink="http://www.w3.org/1999/xlink" width="512" height="512" x="0" y="0" viewBox="0 0 512 512" style="enable-background:new 0 0 512 512" xml:space="preserve" class=""><g><path d="M502.11 210.528a8.282 8.282 0 0 0-8.282 8.282v191.429a11.5 11.5 0 0 1-11.485 11.485H28.049a11.5 11.5 0 0 1-11.485-11.485V180.05h214.682a8.283 8.283 0 1 0 0-16.565H16.564v-46.036a11.5 11.5 0 0 1 11.485-11.485H385.5a8.282 8.282 0 1 0 0-16.564H28.049A28.08 28.08 0 0 0 0 117.449v292.79a28.081 28.081 0 0 0 28.049 28.05h454.294a28.082 28.082 0 0 0 28.05-28.05V218.81a8.282 8.282 0 0 0-8.283-8.282z" fill="#000000" opacity="1" data-original="#000000"></path><circle cx="54.471" cy="134.8" r="10.363" fill="#000000" opacity="1" data-original="#000000"></circle><circle cx="95.231" cy="134.8" r="10.363" fill="#000000" opacity="1" data-original="#000000"></circle><circle cx="135.991" cy="134.8" r="10.363" fill="#000000" opacity="1" data-original="#000000"></circle><path d="M500.239 74.323 236.068 204.534a11.07 11.07 0 0 0 2.665 20.773l57.145 11.742 18.912 79.263c1.322 6.923 12.325 10.925 20.76 2.01l38.758-42.8a8.282 8.282 0 1 0-12.277-11.122l-17.2 18.994 8.778-33.725 84.358 27.293c7.192 2.253 12.194-1.748 13.978-7.241 0 0 47.127-137.853 59.62-184.75 2.616-9.823-7.222-12.671-11.326-10.648zm-188.23 158.96 55.677-42.96a8.282 8.282 0 1 0-10.119-13.114l-56.91 43.911-42.891-8.813L461.874 111.7l-117.15 115.97c-2.6 2.533-3.6 4.533-4.9 9.215l-14.061 54.026zm125.824 26.231-76.674-24.806 124.428-123.173zM50.147 247.6a8.282 8.282 0 1 0-1.725 16.473c13.139 1.377 24.723 3.954 34.432 7.659a8.282 8.282 0 1 0 5.908-15.474c-11.209-4.275-23.84-7.108-38.615-8.658zM149.3 322.844c-7.825-17.737-15.915-36.079-33.033-50.611a8.282 8.282 0 1 0-10.721 12.627c14.218 12.071 21.2 27.9 28.6 44.669 10.587 24 21.533 48.813 54.1 62.2a75.97 75.97 0 0 0 29.049 5.891c18.343 0 36.757-6.93 54.372-20.634a150.265 150.265 0 0 0 31.806-34.344 8.282 8.282 0 0 0-14-8.862 135.551 135.551 0 0 1-28.321 30.394c-22.221 17.15-44.634 21.265-66.615 12.234-26.4-10.852-35.131-30.645-45.237-53.564z" fill="#000000" opacity="1" data-original="#000000"></path></g></svg>