<svg xmlns="http://www.w3.org/2000/svg" xmlns:xlink="http://www.w3.org/1999/xlink" version="1.1" width="512" height="512" x="0" y="0" viewBox="0 0 512 512" style="enable-background:new 0 0 512 512" xml:space="preserve" class=""><g><circle cx="256" cy="256" r="194.352" style="" fill="#497fc1" data-original="#497fc1" class=""/><path d="M253.924 77.072h4.144v27.634h-4.144z" style="" fill="#ffffff" data-original="#ffffff"/><path d="M239.401 77.045h4.145v13.887h-4.145z" style="" transform="scale(-1) rotate(-5.705 -1685.711 4846.585)" fill="#ffffff" data-original="#ffffff"/><path d="M253.924 407.297h4.144v27.634h-4.144z" style="" fill="#ffffff" data-original="#ffffff"/><path d="M268.406 421.067h4.145v13.887h-4.145z" style="" transform="scale(-1) rotate(-5.705 -8590.556 5428.748)" fill="#ffffff" data-original="#ffffff"/><path d="M228.096 79.112h4.144v27.633h-4.144z" style="" transform="rotate(171.004 230.167 92.929)" fill="#ffffff" data-original="#ffffff"/><path d="M212.681 81.427h4.145v13.887h-4.145z" style="" transform="scale(-1) rotate(-14.709 -684.697 1663.92)" fill="#ffffff" data-original="#ffffff"/><path d="M279.749 405.275h4.144v27.633h-4.144z" style="" transform="rotate(171.004 281.82 419.09)" fill="#ffffff" data-original="#ffffff"/><path d="M295.148 416.677h4.145v13.887h-4.145z" style="" transform="scale(-1) rotate(-14.709 -3282.232 2302.88)" fill="#ffffff" data-original="#ffffff"/><path d="M202.903 85.155h4.145v27.633h-4.145z" style="" transform="rotate(162.008 204.975 98.971)" fill="#ffffff" data-original="#ffffff"/><path d="M186.962 89.943h4.146v13.887h-4.146z" style="" transform="scale(-1) rotate(-23.704 -461.688 900.801)" fill="#ffffff" data-original="#ffffff"/><path d="M304.947 399.218h4.145v27.633h-4.145z" style="" transform="rotate(162.008 307.019 413.034)" fill="#ffffff" data-original="#ffffff"/><path d="M320.867 408.162h4.146v13.887h-4.146z" style="" transform="scale(-1) rotate(-23.704 -1978.083 1538.894)" fill="#ffffff" data-original="#ffffff"/><path d="M178.966 95.059h4.145v27.633h-4.145z" style="" transform="rotate(153.012 181.039 108.875)" fill="#ffffff" data-original="#ffffff"/><path d="M162.895 102.373h4.145v13.887h-4.145z" style="" transform="rotate(147.288 164.969 109.317)" fill="#ffffff" data-original="#ffffff"/><path d="M328.889 389.285h4.145v27.633h-4.145z" style="" transform="rotate(153.012 330.963 403.102)" fill="#ffffff" data-original="#ffffff"/><path d="M344.947 395.741h4.145v13.887h-4.145z" style="" transform="rotate(147.288 347.021 402.685)" fill="#ffffff" data-original="#ffffff"/><path d="M156.88 108.592h4.145v27.633h-4.145z" style="" transform="rotate(143.998 158.953 122.409)" fill="#ffffff" data-original="#ffffff"/><path d="M141.069 118.419h4.145v13.886h-4.145z" style="" transform="scale(-1) rotate(-41.716 -329.034 375.698)" fill="#ffffff" data-original="#ffffff"/><path d="M350.979 375.732h4.145v27.633h-4.145z" style="" transform="rotate(143.998 353.053 389.55)" fill="#ffffff" data-original="#ffffff"/><path d="M366.745 379.703h4.145v13.886h-4.145z" style="" transform="scale(-1) rotate(-41.716 -1014.816 968.02)" fill="#ffffff" data-original="#ffffff"/><path d="M137.175 125.433h4.144v27.634h-4.144z" style="" transform="rotate(134.999 139.248 139.25)" fill="#ffffff" data-original="#ffffff"/><path d="M117.172 142.55h13.887v4.144h-13.887z" style="" transform="rotate(-140.714 124.115 144.621)" fill="#ffffff" data-original="#ffffff"/><path d="M370.67 358.937h4.144v27.634h-4.144z" style="" transform="rotate(134.999 372.744 372.755)" fill="#ffffff" data-original="#ffffff"/><path d="M380.961 365.314h13.887v4.144h-13.887z" style="" transform="rotate(-140.714 387.904 367.384)" fill="#ffffff" data-original="#ffffff"/><path d="M108.602 156.88h27.633v4.145h-27.633z" style="" transform="rotate(-143.998 122.419 158.953)" fill="#ffffff" data-original="#ffffff"/><path d="M101.355 164.56h13.888v4.146h-13.888z" style="" transform="scale(-1) rotate(30.291 615.617 -400.103)" fill="#ffffff" data-original="#ffffff"/><path d="M375.752 350.969h27.633v4.145h-27.633z" style="" transform="rotate(-143.998 389.569 353.043)" fill="#ffffff" data-original="#ffffff"/><path d="M396.745 343.311h13.888v4.146h-13.888z" style="" transform="scale(-1) rotate(30.291 1276 -1491.404)" fill="#ffffff" data-original="#ffffff"/><path d="M95.061 178.969h27.633v4.145H95.061z" style="" transform="rotate(-153 108.878 181.042)" fill="#ffffff" data-original="#ffffff"/><path d="M89.207 188.771h13.888v4.146H89.207z" style="" transform="scale(-1) rotate(21.29 1015.324 -511.543)" fill="#ffffff" data-original="#ffffff"/><path d="M389.288 328.887h27.633v4.145h-27.633z" style="" transform="rotate(-153 403.104 330.96)" fill="#ffffff" data-original="#ffffff"/><path d="M408.92 319.125h13.888v4.146H408.92z" style="" transform="scale(-1) rotate(21.29 1708.828 -2212.468)" fill="#ffffff" data-original="#ffffff"/><path d="M85.16 202.909h27.634v4.146H85.16z" style="" transform="scale(-1) rotate(17.998 1294.281 -624.952)" fill="#ffffff" data-original="#ffffff"/><path d="M80.985 214.566h13.887v4.145H80.985z" style="" transform="rotate(-167.715 87.929 216.638)" fill="#ffffff" data-original="#ffffff"/><path d="M399.237 304.948h27.634v4.146h-27.634z" style="" transform="scale(-1) rotate(17.998 1938.572 -2608.074)" fill="#ffffff" data-original="#ffffff"/><path d="M417.158 293.273h13.887v4.145h-13.887z" style="" transform="rotate(-167.715 424.1 295.345)" fill="#ffffff" data-original="#ffffff"/><path d="M79.115 228.096h27.633v4.144H79.115z" style="" transform="rotate(-171.004 92.932 230.167)" fill="#ffffff" data-original="#ffffff"/><path d="M76.883 241.366h13.888v4.146H76.883z" style="" transform="scale(-1) rotate(3.29 8475.186 -2918.381)" fill="#ffffff" data-original="#ffffff"/><path d="M405.279 279.745h27.633v4.144h-27.633z" style="" transform="rotate(-171.004 419.095 281.817)" fill="#ffffff" data-original="#ffffff"/><path d="M421.247 266.517h13.888v4.146h-13.888z" style="" transform="scale(-1) rotate(3.29 9350.806 -14907.245)" fill="#ffffff" data-original="#ffffff"/><path d="M77.072 253.924h27.634v4.144H77.072z" style="" fill="#ffffff" data-original="#ffffff"/><path d="M77.023 268.425H90.91v4.145H77.023z" style="" transform="scale(-1) rotate(-5.705 -5429.139 1685.287)" fill="#ffffff" data-original="#ffffff"/><path d="M407.297 253.924h27.634v4.144h-27.634z" style="" fill="#ffffff" data-original="#ffffff"/><path d="M421.046 239.419h13.887v4.145h-13.887z" style="" transform="scale(-1) rotate(-5.705 -4846.956 8590.132)" fill="#ffffff" data-original="#ffffff"/><path d="M79.092 279.77h27.633v4.144H79.092z" style="" transform="rotate(171.004 92.908 281.842)" fill="#ffffff" data-original="#ffffff"/><path d="M81.416 295.156h13.887v4.145H81.416z" style="" transform="scale(-1) rotate(-14.709 -2302.939 684.61)" fill="#ffffff" data-original="#ffffff"/><path d="M405.256 228.121h27.633v4.144h-27.633z" style="" transform="rotate(171.004 419.071 230.192)" fill="#ffffff" data-original="#ffffff"/><path d="M416.676 212.691h13.887v4.145h-13.887z" style="" transform="scale(-1) rotate(-14.709 -1663.995 3282.222)" fill="#ffffff" data-original="#ffffff"/><path d="M85.146 304.957h27.634v4.146H85.146z" style="" transform="scale(-1) rotate(-17.998 -1938.628 624.866)" fill="#ffffff" data-original="#ffffff"/><path d="M89.929 320.887h13.887v4.146H89.929z" style="" transform="rotate(156.291 96.873 322.96)" fill="#ffffff" data-original="#ffffff"/><path d="M399.225 202.92h27.634v4.146h-27.634z" style="" transform="scale(-1) rotate(-17.998 -1294.35 2608)" fill="#ffffff" data-original="#ffffff"/><path d="M408.177 186.981h13.887v4.146h-13.887z" style="" transform="rotate(156.291 415.12 189.054)" fill="#ffffff" data-original="#ffffff"/><path d="M95.075 328.877h27.633v4.145H95.075z" style="" transform="rotate(153 108.891 330.95)" fill="#ffffff" data-original="#ffffff"/><path d="M102.367 344.94h13.887v4.145h-13.887z" style="" transform="rotate(147.288 109.312 347.014)" fill="#ffffff" data-original="#ffffff"/><path d="M389.298 178.959h27.633v4.145h-27.633z" style="" transform="rotate(153 403.115 181.032)" fill="#ffffff" data-original="#ffffff"/><path d="M395.736 162.898h13.887v4.145h-13.887z" style="" transform="rotate(147.288 402.68 164.97)" fill="#ffffff" data-original="#ffffff"/><path d="M108.605 350.97h27.633v4.145h-27.633z" style="" transform="rotate(143.998 122.422 353.044)" fill="#ffffff" data-original="#ffffff"/><path d="M118.425 366.768h13.887v4.145h-13.887z" style="" transform="rotate(138.288 125.367 368.84)" fill="#ffffff" data-original="#ffffff"/><path d="M375.757 156.881h27.633v4.145h-27.633z" style="" transform="rotate(143.998 389.575 158.954)" fill="#ffffff" data-original="#ffffff"/><path d="M379.7 141.075h13.887v4.145H379.7z" style="" transform="rotate(138.288 386.642 143.148)" fill="#ffffff" data-original="#ffffff"/><path d="M125.426 370.673h27.634v4.144h-27.634z" style="" transform="rotate(134.999 139.244 372.747)" fill="#ffffff" data-original="#ffffff"/><path d="M142.55 380.965h4.145v13.888h-4.145z" style="" transform="rotate(-140.724 144.622 387.904)" fill="#ffffff" data-original="#ffffff"/><path d="M358.928 137.179h27.634v4.144h-27.634z" style="" transform="rotate(134.999 372.747 139.251)" fill="#ffffff" data-original="#ffffff"/><path d="M365.31 117.176h4.145v13.888h-4.145z" style="" transform="rotate(-140.724 367.378 124.117)" fill="#ffffff" data-original="#ffffff"/><path d="M156.861 375.753h4.145v27.633h-4.145z" style="" transform="rotate(-143.998 158.934 389.57)" fill="#ffffff" data-original="#ffffff"/><path d="M164.544 396.747h4.145v13.887h-4.145z" style="" transform="rotate(-149.701 166.617 403.693)" fill="#ffffff" data-original="#ffffff"/><path d="M350.96 108.615h4.145v27.633h-4.145z" style="" transform="rotate(-143.998 353.034 122.432)" fill="#ffffff" data-original="#ffffff"/><path d="M343.286 101.365h4.145v13.887h-4.145z" style="" transform="rotate(-149.701 345.36 108.31)" fill="#ffffff" data-original="#ffffff"/><path d="M178.969 389.298h4.145v27.633h-4.145z" style="" transform="rotate(-153.012 181.042 403.116)" fill="#ffffff" data-original="#ffffff"/><path d="M188.742 408.923h4.146v13.888h-4.146z" style="" transform="scale(-1) rotate(21.302 2211.178 -1014.569)" fill="#ffffff" data-original="#ffffff"/><path d="M328.882 95.069h4.145v27.633h-4.145z" style="" transform="rotate(-153.012 330.955 108.886)" fill="#ffffff" data-original="#ffffff"/><path d="M319.097 89.22h4.146v13.888h-4.146z" style="" transform="scale(-1) rotate(21.302 511.306 -1707.67)" fill="#ffffff" data-original="#ffffff"/><path d="M202.912 399.213h4.145v27.633h-4.145z" style="" transform="rotate(-162.008 204.984 413.028)" fill="#ffffff" data-original="#ffffff"/><path d="M214.543 417.133h4.145v13.887h-4.145z" style="" transform="scale(-1) rotate(12.304 3934.359 -2009.647)" fill="#ffffff" data-original="#ffffff"/><path d="M304.948 85.145h4.145v27.633h-4.145z" style="" transform="rotate(-162.008 307.02 98.962)" fill="#ffffff" data-original="#ffffff"/><path d="M293.268 80.987h4.145v13.887h-4.145z" style="" transform="scale(-1) rotate(12.304 815.774 -2740.01)" fill="#ffffff" data-original="#ffffff"/><path d="M228.111 405.256h4.144v27.633h-4.144z" style="" transform="rotate(-171.004 230.182 419.071)" fill="#ffffff" data-original="#ffffff"/><path d="M241.356 421.244h4.146v13.888h-4.146z" style="" transform="scale(-1) rotate(3.285 14933.194 -8489.662)" fill="#ffffff" data-original="#ffffff"/><path d="M279.768 79.092h4.144v27.633h-4.144z" style="" transform="rotate(-171.004 281.84 92.908)" fill="#ffffff" data-original="#ffffff"/><path d="M266.518 76.894h4.146v13.888h-4.146z" style="" transform="scale(-1) rotate(3.285 2923.871 -9367.195)" fill="#ffffff" data-original="#ffffff"/><path d="M387.18 123.291 236.208 236.208l38.056 38.056z" style="" fill="#de3205" data-original="#de3205"/><path d="m123.291 387.18 112.917-150.972 38.056 38.056z" style="" fill="#ffffff" data-original="#ffffff"/></g></svg>